<svg width="138" height="138" viewBox="0 0 138 138" fill="none" xmlns="http://www.w3.org/2000/svg">
<path d="M105.104 10.6743C105.588 16.6704 105.174 56.9561 105.421 93.2107C105.426 93.9766 105.567 95.239 105.553 96.7539C105.547 97.3911 105.12 103.584 105.315 112.692C105.358 114.688 105.704 114.361 103.561 114.897C103.441 114.845 71.8003 115.043 71.3369 115.063C71.1292 115.071 47.8428 114.886 38.4367 115.415C35.6477 115.572 35.6422 115.365 34 115.443C33.9306 115.446 27.2273 115.172 27.1579 115.167C21.6034 114.754 23.3805 116.097 22.8837 110.656C22.271 103.937 22.6929 101.636 22.6333 100.872C22.567 100.031 22.5108 95.9604 22.6319 94.7353C22.8082 92.9444 21.9429 83.5914 22.1596 81.8789C22.3097 80.6952 22.1858 79.5042 22.2476 78.3192C22.6978 69.6876 22.8575 73.466 22.8009 66.6392C22.7699 62.9128 22.4204 66.013 22.6633 54.7732C22.9179 43.0201 22.1727 42.4305 22.6315 38.3029C22.7582 37.1617 22.7851 35.6461 22.5991 34.7184C22.3755 33.6013 22.5888 30.9948 22.4704 27.3978C22.429 26.1603 22.3038 23.2544 22.6764 18.7352C22.7678 17.623 22.6212 11.7856 22.6274 8.28312C22.6295 7.27813 21.9612 6.48118 24.0564 6.21415C24.1254 6.20518 103.026 6.17758 104.388 6.0282C105.19 5.94022 104.876 7.84324 105.106 10.674H105.104V10.6743Z" fill="white"/>
<path d="M83.3928 29.0697C83.8569 29.1439 98.4942 29.2933 99.4112 29.0614C99.6955 29.1329 99.9335 29.0152 100.149 28.8548C101.138 28.123 100.699 27.2043 100.744 26.26C100.841 24.2076 99.8273 24.1566 97.8042 24.1121C96.8854 24.0914 86.0059 24.0914 84.5041 24.1583C82.4938 24.2477 82.3465 24.4929 82.2088 25.0667C81.9176 26.2807 81.7724 27.608 82.4179 28.6747C82.6269 29.0207 83.3773 29.0683 83.3932 29.0697H83.3928Z" fill="white"/>
<path d="M100.818 63.7622C100.981 62.1552 99.5413 61.7847 98.9407 61.8723C97.6221 62.0645 88.896 61.429 83.4799 61.8461C82.8872 61.8916 82.6581 62.0648 82.479 62.6168C82.1996 63.4759 82.1054 65.0622 82.5335 65.9875C82.9962 66.9849 98.428 66.7185 98.4967 66.713C100.809 66.525 101.126 66.5401 100.818 63.7622Z" fill="white"/>
<path d="M83.1522 47.5569C84.1792 47.7435 88.224 47.6217 90.3585 47.6531C98.2338 47.7687 100.325 48.3718 100.665 46.7096C100.71 46.4957 100.727 44.4422 100.568 43.8471C100.397 43.2106 99.8346 43.0439 99.3089 42.8801C98.368 42.5875 84.4752 42.6858 84.4718 42.6448C83.3795 42.7493 82.5612 42.6544 82.328 43.4631C81.9412 44.8038 81.7794 47.3071 83.1525 47.5569H83.1522Z" fill="white"/>
<path d="M100.488 72.4414C100.606 71.7352 99.7127 70.7564 98.6781 70.9099C98.6091 70.9203 88.9857 70.7806 87.6181 70.9741C87.2493 71.0265 85.5422 70.7436 85.1886 71.5868C84.8439 72.4079 84.6387 74.2847 85.1693 75.2393C85.7468 76.2778 86.8722 75.8182 96.4811 75.9042C96.6726 75.9055 96.8272 76.0073 98.4656 75.9552C99.6741 75.9159 99.9156 75.6199 100.123 75.426C100.876 74.7212 100.367 73.1735 100.488 72.4414Z" fill="white"/>
<path d="M100.113 52.6742C99.4023 51.5447 98.6123 51.9515 97.4883 51.8338C96.5219 51.7321 87.021 51.8835 85.8942 51.9839C85.3456 52.0322 85.0917 52.2302 84.9223 52.7464C84.5018 54.0266 84.5294 56.6607 85.7897 56.7797C87.1379 56.9071 97.9982 56.9471 98.061 56.9402C99.1346 56.8191 100.422 56.6041 100.345 55.477C100.314 55.0199 100.405 53.1397 100.113 52.6749V52.6742Z" fill="white"/>
<path d="M99.5302 33.4574C98.4062 33.1662 96.1755 33.149 96.0985 33.149C95.855 33.149 93.106 33.2756 91.8492 33.2894C87.7161 33.3336 86.798 33.0762 86.4737 34.114C86.3079 34.6407 86.2225 35.1894 86.2205 35.7417C86.2136 39.1027 87.4842 38.0666 92.455 38.2712C92.5257 38.274 98.5139 38.2822 98.5825 38.276C99.7245 38.1763 100.609 37.8141 100.519 36.708C100.382 35.0327 100.76 33.7752 99.5309 33.4567H99.5302V33.4574Z" fill="white"/>
<path d="M61.6688 41.5639C62.5979 41.5052 68.5813 41.5722 68.6313 41.577C69.9199 41.7029 71.4265 41.3569 71.8043 42.2204C72.1472 43.0043 72.1348 43.8302 72.1327 43.8716C72.1085 44.3553 72.4135 46.0617 71.1381 46.4525C70.3466 46.6961 43.3207 46.4753 31.856 46.7637C30.171 46.8065 28.1531 46.9028 28.2114 45.2123C28.2128 45.166 28.2911 42.9808 28.3008 42.9363C28.4115 42.4464 28.8066 41.912 29.7639 41.7457C30.417 41.6322 59.6068 41.694 61.6682 41.5639H61.6688Z" fill="white"/>
<path d="M55.8984 27.8198C54.6278 27.9609 30.7269 28.1171 29.5204 28.0043C28.66 27.9239 28.1321 27.3071 28.1273 26.6947C28.1038 23.7229 28.1142 23.6615 29.499 23.0943C29.9023 22.929 69.3165 22.6413 70.4005 22.9145C70.8597 23.0301 71.5666 22.9111 71.7901 23.7129C71.9775 24.3839 72.1151 24.6502 72.0137 26.4494C71.9792 27.0635 71.4175 27.7332 70.8724 27.8066C69.1009 28.044 57.0335 27.6938 55.8984 27.8198Z" fill="white"/>
<path d="M28.4557 33.5606C28.4639 33.2845 28.5643 33.0191 28.741 32.8068C28.9176 32.5945 29.1603 32.4475 29.4303 32.3893C31.9468 31.8525 59.6189 31.9087 63.6595 32.0519C64.0794 32.0678 65.7795 31.8549 66.1152 32.637C66.591 33.7424 66.8922 36.766 65.193 36.9167C65.0292 36.9305 36.3 37.111 29.685 37.1193C29.0533 37.1193 28.4012 36.4124 28.3819 35.791C28.3639 35.2252 28.3936 35.3608 28.4554 33.5609L28.4557 33.5606Z" fill="white"/>
<path d="M105.104 10.6743C105.588 16.6704 105.174 56.9561 105.421 93.2107C105.426 93.9766 105.567 95.239 105.553 96.7539C105.547 97.3911 105.132 103.931 105.327 113.039C105.351 114.144 106.075 114.913 102.322 115.006C101.931 115.016 76.3159 114.859 71.3362 115.062C71.1285 115.071 47.842 114.886 38.4359 115.415C35.647 115.572 35.6421 115.364 33.9992 115.442C33.9299 115.446 27.2266 115.172 27.1572 115.166C21.6034 114.753 23.3798 116.097 22.8837 110.656C22.271 103.936 22.6922 101.636 22.6325 100.871C22.5663 100.03 22.5101 95.96 22.6312 94.7349C22.8074 92.944 21.9422 83.5911 22.1588 81.8785C22.3089 80.6948 22.1851 79.5039 22.2468 78.3188C22.697 69.6872 22.8568 73.4657 22.8002 66.6388C22.7692 62.9125 22.4197 66.0126 22.6632 54.7729C22.9178 43.0198 22.172 42.4302 22.6308 38.3026C22.7574 37.1613 22.7843 35.6458 22.5984 34.718C22.3748 33.6009 22.588 30.9945 22.4697 27.3975C22.429 26.16 22.3031 23.254 22.6757 18.7349C22.7671 17.6226 22.6205 11.7852 22.6267 8.28277C22.6287 7.27778 21.9605 6.48083 24.0557 6.2138C24.1247 6.20483 103.051 6.06097 104.414 5.91089C105.215 5.82292 104.887 7.98055 105.105 10.6729L105.104 10.6743ZM23.5668 7.62382C23.5723 7.69282 23.6955 16.3651 23.6955 16.4351C23.7883 18.1139 23.2007 24.642 23.335 26.1431C23.5119 28.1275 23.4657 26.1431 23.4671 33.6172C23.4671 34.8547 23.9104 35.2159 23.6172 38.1404C23.0645 43.6515 24.2354 48.1341 23.7327 53.4957C23.6103 54.8036 23.5937 62.4695 23.6268 63.2168C24.0964 73.8065 23.2242 72.6228 23.139 84.6357C23.1231 86.8403 23.87 92.716 23.5589 95.8314C23.4661 112.111 23.6455 102.078 23.9311 113.314C23.9422 113.747 23.8086 114.014 24.1726 114.016C25.9918 114.025 25.6468 114.138 27.4874 114.207C33.8692 114.444 33.7898 114.579 34.8862 114.431C35.2309 114.384 36.9573 114.686 40.1213 114.32C42.3458 114.063 70.3022 114.144 70.3716 114.139C72.2149 113.979 102.663 113.929 102.74 113.933C104.63 114.037 104.457 113.897 104.391 113.593C104.129 112.395 104.655 112.349 104.275 105.633C104.143 103.3 104.487 98.7894 104.491 98.7728C104.728 96.7259 104.256 83.9054 104.264 83.6342C104.266 83.5652 104.019 10.2682 104.019 7.56275C104.019 6.90346 104.035 7.02524 103.211 7.01558C70.6493 6.64057 31.6543 7.25087 25.1873 7.10218C24.1795 7.07872 23.5119 6.94865 23.5678 7.62451L23.5671 7.62313L23.5668 7.62382Z" fill="#2B1F2D"/>
<path d="M55.8984 27.8198C54.6278 27.9609 30.7269 28.1171 29.5204 28.0043C28.66 27.9239 28.1321 27.3071 28.1273 26.6947C28.1038 23.7229 28.1142 23.6615 29.499 23.0943C29.9023 22.929 69.3165 22.6413 70.4005 22.9145C70.8597 23.0301 71.5666 22.9111 71.7901 23.7129C71.9775 24.3839 72.1151 24.6502 72.0137 26.4494C71.9792 27.0635 71.4175 27.7332 70.8724 27.8066C69.1009 28.044 57.0335 27.6938 55.8984 27.8198ZM29.8154 27.0394C30.1683 27.0718 68.0552 26.8589 68.1276 26.8582C68.8214 26.8465 68.6948 27.0666 70.4478 26.7868C71.333 26.645 70.9632 25.4213 70.9 24.5157C70.8856 24.3097 70.7444 24.2024 70.6323 24.0779C70.2649 23.6718 30.0117 23.7777 29.9416 23.9623C29.844 24.2162 29.1047 23.7125 29.1026 24.6071C29.0964 26.9445 28.9401 26.9597 29.8164 27.0401L29.8154 27.0394Z" fill="#2B1F2D"/>
<path d="M61.6688 41.5639C62.5979 41.5052 68.5813 41.5722 68.6313 41.577C69.9199 41.7029 71.4265 41.3569 71.8043 42.2204C72.1472 43.0043 72.1348 43.8302 72.1327 43.8716C72.1085 44.3553 72.4135 46.0617 71.1381 46.4525C70.3466 46.6961 43.3207 46.4753 31.856 46.7637C30.171 46.8065 28.1531 46.9028 28.2114 45.2123C28.2128 45.166 28.2911 42.9808 28.3008 42.9363C28.4115 42.4464 28.8066 41.912 29.7639 41.7457C30.417 41.6322 59.6068 41.694 61.6682 41.5639H61.6688ZM29.183 44.2325C29.183 46.0316 28.7762 45.8326 33.1494 45.7494C35.6389 45.7011 33.1853 45.7412 62.5614 45.5293C62.8588 45.5273 69.667 45.6573 70.3994 45.5176C70.9528 45.4124 71.0829 45.1961 71.1263 44.592C71.1581 44.1528 71.1049 42.839 70.654 42.729C67.991 42.0786 29.8509 42.7152 29.7815 42.7096C29.0353 42.6462 29.1819 43.4642 29.1819 44.2335L29.1826 44.2328L29.183 44.2325Z" fill="#2B1F2D"/>
<path d="M28.4557 33.5606C28.4639 33.2845 28.5643 33.0191 28.741 32.8068C28.9176 32.5945 29.1603 32.4475 29.4303 32.3893C31.9468 31.8525 59.6189 31.9087 63.6595 32.0519C64.0794 32.0678 65.7795 31.8549 66.1152 32.637C66.591 33.7424 66.8922 36.766 65.193 36.9167C65.0292 36.9305 36.3 37.111 29.685 37.1193C29.0533 37.1193 28.4012 36.4124 28.3819 35.791C28.3639 35.2252 28.3936 35.3608 28.4554 33.5609L28.4557 33.5606ZM29.3586 34.8367C29.3586 35.9442 28.9567 36.3337 31.7022 36.2202C32.1879 36.1995 63.3966 36.068 63.6913 36.048C65.6736 35.9173 65.1799 35.6848 65.4435 35.1648C65.4939 35.0651 65.4201 34.9088 65.4187 34.776C65.4014 33.12 65.4615 32.9265 62.2788 32.9534C29.9327 33.2273 29.3738 32.5901 29.3558 33.7093C29.3558 33.7258 29.3558 34.8174 29.3593 34.836H29.3586V34.8367Z" fill="#2B1F2D"/>
<path d="M74.8096 102.992C76.9297 103.123 75.6197 105.353 75.6439 105.717C76.0699 105.551 78.3314 103.001 80.134 102.718C80.9551 102.589 81.5972 103.113 81.6758 103.693C81.7138 103.972 81.8114 104.259 81.6758 104.543C81.2636 105.41 85.6333 100.914 87.6509 102.725C87.8613 102.915 87.8534 102.853 88.2457 102.464C89.9445 100.779 91.4731 99.7912 92.1421 99.2358C92.6082 98.8491 92.8669 98.9908 92.9356 99.3251C93.164 100.439 92.8818 99.5021 89.1358 103.007C88.9857 103.148 87.8279 104.275 87.7102 104.637C87.5098 105.251 86.293 107.819 85.437 107.518C84.4445 107.168 85.7337 105.581 86.7466 104.126C87.0095 103.749 86.9409 103.258 86.4851 103.321C84.8029 103.549 81.4923 105.756 80.4925 107.519C80.1516 108.12 79.4244 107.665 79.6431 107.106C79.7856 106.742 80.3114 106.085 80.5318 105.3C81.958 100.215 73.8537 109.086 73.587 109.105C71.8696 109.228 74.5285 106.915 75.0501 104.413C75.1074 104.141 75.037 103.901 74.7707 103.993C70.7059 105.411 68.8446 108.46 68.3957 108.748C68.3267 108.793 67.8686 108.556 67.8714 108.477C67.9497 106.649 72.8614 103.336 74.81 102.991L74.8096 102.992Z" fill="#2B1F2D"/>
<path d="M84.7222 24.1742C85.2315 24.13 96.248 24.0765 97.8043 24.1121C99.8388 24.1583 100.84 24.2111 100.744 26.2607C100.699 27.2064 101.14 28.1251 100.149 28.8555C99.934 29.0138 99.697 29.1328 99.4113 29.0614C98.5488 29.2795 83.6738 29.1201 83.393 29.0697C83.3764 29.0669 82.6271 29.0207 82.4183 28.6747C81.7735 27.6066 81.9188 26.2807 82.2093 25.0674C82.4459 24.081 83.7117 24.1524 84.7222 24.1742ZM84.1288 25.184C83.9291 25.1584 83.7842 25.2899 83.6065 25.2864C83.0724 25.2768 83.0925 25.9561 83.038 26.5488C82.9938 27.0332 82.9972 27.9785 83.4771 28.0575C83.5485 28.0692 98.142 28.2207 98.2145 28.2158C100.37 28.0733 99.7742 28.0181 99.8229 25.807C99.8408 24.9866 99.5352 25.2205 98.9935 25.0546C97.7919 24.6872 84.537 25.2364 84.1288 25.184Z" fill="#2B1F2D"/>
<path d="M100.818 63.7622C100.877 64.2942 100.958 65.066 100.892 65.5973C100.819 66.1983 100.232 66.8155 99.5827 66.8286C99.2508 66.8348 98.9213 66.9386 98.5881 66.9642C98.3266 66.9842 86.4261 66.7047 86.3575 66.6951C85.8124 66.6147 83.0848 67.1788 82.5335 65.9882C82.1033 65.0605 82.2126 63.4327 82.479 62.6175C82.6594 62.0641 82.8871 61.8913 83.4798 61.8468C89.0136 61.4283 97.6597 62.0586 98.9407 61.873C99.5744 61.7809 100.98 62.1656 100.818 63.7622ZM86.4475 62.6368C83.2066 62.7393 83.3346 62.601 83.2435 64.8048C83.2131 65.5393 83.8086 65.6307 84.2023 65.6652C85.9856 65.827 84.815 65.6432 86.66 65.7053C86.7301 65.7073 98.654 65.9695 99.4785 65.8443C99.9198 65.7767 99.9329 65.4838 99.9329 65.0818C99.9329 62.9463 100.028 63.0905 99.5234 62.8863C98.7368 62.5696 88.0287 62.6989 86.4475 62.6372V62.6368Z" fill="#2B1F2D"/>
<path d="M99.3088 42.8801C99.8345 43.0433 100.397 43.2106 100.568 43.8471C100.727 44.4426 100.71 46.4943 100.665 46.7096C100.321 48.3718 98.2337 47.7687 90.3584 47.6531C88.3198 47.6235 84.1784 47.7432 83.1521 47.5569C81.779 47.3071 81.9401 44.8038 82.3275 43.4631C82.5607 42.6551 83.3805 42.7493 84.4714 42.6448C84.4748 42.6855 98.368 42.5875 99.3088 42.8801ZM99.7431 44.2338C99.7348 43.8312 98.8292 43.7005 98.7602 43.7019C98.6909 43.7032 87.5325 43.6325 87.4635 43.627C86.67 43.5663 84.7311 43.5087 83.6278 43.8033C83.378 43.8702 83.2604 44.0365 83.2197 44.2494C83.1652 44.533 83.0413 45.2778 83.1838 46.0768C83.2953 46.7002 83.7993 46.5695 83.9739 46.6123C84.0429 46.6288 98.0319 46.9193 98.102 46.9131C100.525 46.6958 99.4447 46.6488 99.7428 44.2342L99.7431 44.2338Z" fill="#2B1F2D"/>
<path d="M76.932 20.8977C76.9423 20.3353 77.7786 19.9348 77.9211 21.0478C78.1895 23.1498 77.9404 36.697 77.6706 61.0091C77.6603 61.9265 77.7182 61.8896 77.4436 62.0051C77.0106 62.1883 76.8971 61.9934 76.7968 61.6719C76.7284 61.4517 76.9313 20.9136 76.932 20.8977Z" fill="#2B1F2D"/>
<path d="M85.1689 75.2386C84.6534 74.313 84.8301 72.4386 85.1882 71.5861C85.5425 70.7436 87.2489 71.0258 87.6177 70.9734C88.8448 70.8006 98.6087 70.9196 98.6777 70.9092C99.6751 70.7619 100.61 71.7027 100.488 72.4407C100.367 73.1731 100.875 74.7173 100.123 75.4243C99.9121 75.6219 99.6716 75.9142 98.4652 75.9535C96.8257 76.0066 96.6722 75.9045 96.4807 75.9024C86.9839 75.8179 85.7471 76.2778 85.1689 75.2386ZM99.5388 73.3967C99.5388 71.6755 99.792 71.9974 97.9532 71.7455C97.9139 71.7676 97.9532 71.7372 93.5413 71.8714C85.7178 72.1088 86.0221 71.1563 85.852 74.038C85.812 74.7153 86.4378 74.8509 86.8287 74.8902C86.8977 74.8971 98.3951 74.9378 99.1804 74.8412C99.6168 74.7874 99.5395 74.5749 99.5395 73.3957L99.5388 73.3963V73.3967Z" fill="#2B1F2D"/>
<path d="M85.7903 56.7798C84.5245 56.66 84.5045 54.0232 84.923 52.7464C85.0924 52.2289 85.3463 52.0326 85.8949 51.9839C87.0216 51.8828 96.5219 51.7307 97.4889 51.8338C98.6123 51.9529 99.4023 51.5447 100.113 52.675C100.405 53.139 100.314 55.013 100.347 55.4764C100.425 56.6121 99.1208 56.8205 98.0623 56.9402C97.9989 56.9471 87.1352 56.9071 85.791 56.7798H85.7903ZM88.5441 52.7836C85.7255 52.9989 85.8769 52.8002 85.7338 54.235C85.6751 54.8243 85.6717 55.6892 86.2526 55.7996C87.7806 56.0887 92.6976 55.6599 95.6908 55.8766C96.1003 55.9062 98.1617 55.9473 98.9435 55.8145C99.4789 55.7237 99.382 55.5012 99.3613 53.2445C99.3578 52.8799 98.7151 52.7615 98.426 52.7388C95.933 52.539 91.1578 53.0279 88.5438 52.7836H88.5441Z" fill="#2B1F2D"/>
<path d="M91.8491 33.2894C93.1066 33.2749 95.8556 33.149 96.0985 33.149C96.2492 33.149 98.4662 33.1821 99.5302 33.4574C100.76 33.7755 100.381 35.033 100.518 36.7087C100.604 37.7616 99.8055 38.1391 98.7415 38.2574C98.5521 38.2781 92.5243 38.274 92.4542 38.2712C87.4848 38.0666 86.219 39.1027 86.2197 35.7417C86.2197 35.1862 86.307 34.6404 86.473 34.114C86.7993 33.0776 87.716 33.3363 91.8491 33.2894ZM90.0775 34.2012C90.0775 34.2747 87.6108 33.9908 87.3831 34.8202C87.3117 35.0803 87.1854 35.7838 87.3437 36.688C87.5331 37.7685 88.9376 36.9999 96.5521 37.2869C97.2846 37.3145 99.5253 37.5374 99.5357 36.8105C99.5702 34.3106 99.6078 34.3534 99.1976 34.2775C97.3311 33.9321 98.1774 34.2471 96.7905 34.0763C96.1326 33.9953 96.7905 34.2002 90.0779 34.2002H90.0772L90.0775 34.2012Z" fill="#2B1F2D"/>
<path d="M29.1019 14.5649C29.1005 16.3565 28.6544 16.2229 32.6927 16.1505C49.5018 15.8497 44.5917 16.4562 83.1406 15.6233C85.7982 15.5661 83.8951 15.7548 89.4486 15.7375C98.4169 15.7092 97.9266 16.1305 98.668 14.9878C98.7726 14.826 98.4445 13.6327 98.3872 13.19C98.3679 13.04 98.2848 12.932 98.1374 12.9058C96.3638 12.5932 69.6608 12.7108 69.587 12.7246C69.5176 12.7378 29.6125 13.1459 29.5425 13.1445C29.0201 13.1314 29.1026 13.3895 29.1012 14.5652L29.1019 14.5649Z" fill="#01984A"/>
<path d="M28.189 13.8404C28.1134 13.0955 28.5481 12.3579 29.2626 12.3351C46.1494 11.7983 85.0885 11.6869 86.7376 11.7307C96.6729 11.9957 98.9281 11.3612 99.3501 12.4279C99.7686 13.4857 99.8738 15.3908 99.299 16.373C99.111 16.6946 99.0016 16.6428 97.5892 16.806C97.1203 16.8605 97.0124 16.9043 96.3696 16.8046C95.9594 16.7411 92.9924 16.905 91.8401 16.6918C91.6555 16.6573 85.9917 16.8426 84.3446 16.6276C84.2753 16.6187 31.934 17.1403 31.8636 17.1417C26.9349 17.2586 28.4153 16.1025 28.1883 13.84L28.189 13.8404ZM29.1015 14.5652C29.1001 16.3568 28.6541 16.2233 32.6923 16.1508C49.5014 15.85 44.5913 16.4565 83.1403 15.6237C85.7978 15.5664 83.8948 15.7544 89.4482 15.7379C98.4165 15.7096 97.9263 16.1301 98.6677 14.9875C98.7722 14.8264 98.4441 13.633 98.3868 13.1904C98.3675 13.0403 98.2844 12.9323 98.1371 12.9061C96.3634 12.5936 69.6604 12.7112 69.5866 12.725C69.5172 12.7381 29.6114 13.1462 29.5421 13.1449C29.0191 13.1311 29.1015 13.3898 29.1008 14.5656V14.5649L29.1015 14.5652Z" fill="#2B1F2D"/>
<path d="M72.1446 94.422C77.725 93.515 82.0558 89.3267 82.6478 85.4965C82.8089 84.4532 82.9548 83.3575 82.8762 82.4998C82.85 82.2121 82.5367 82.3774 81.8164 82.3988C80.9297 82.425 81.8115 82.0272 61.2906 82.4395C60.9011 82.4471 57.5815 82.5751 57.192 82.5654C56.8946 88.7544 62.6081 95.9714 72.1446 94.422Z" fill="#01984A"/>
<path d="M45.845 99.9834C46.2497 99.9965 46.2469 99.9965 46.3804 99.7823C46.5471 99.5159 46.6468 99.2255 46.7251 98.9246C47.1318 97.3621 47.264 97.7292 47.6217 95.6685C48.1268 92.757 47.9933 87.1215 47.8132 86.1324C46.2852 77.7754 45.7891 62.0627 45.2626 58.2874C45.2385 58.1125 44.8524 58.178 44.2894 58.0946C42.6499 57.8517 42.6617 57.6374 42.6465 57.9217C41.064 87.4206 38.117 90.1737 41.2831 99.2237C41.8282 100.782 41.5749 99.4021 45.845 99.9827V99.9834Z" fill="#01984A"/>
<path d="M58.348 107.041C57.8839 105.856 56.9686 104.592 54.1448 104.556C50.5327 104.509 51.9596 104.373 48.2257 104.2C47.8665 104.183 47.0433 103.98 47.2131 103.566C47.4215 103.06 47.6426 103.346 48.2188 103.294C48.4306 103.274 48.629 103.407 48.8442 103.323C48.9063 103.299 49.0533 103.359 49.0581 103.346C49.0871 103.265 47.3328 101.42 46.2253 101.018C45.1441 100.625 42.0495 100.648 41.2008 101.225C40.7109 101.558 38.3918 103.412 38.9817 103.352C39.2039 103.33 39.7197 103.298 40.3203 103.255C40.6405 103.231 40.9734 103.73 40.5736 103.934C39.4337 104.514 33.6028 104.434 32.9201 104.602C31.1671 105.033 30.3026 105.305 29.6067 106.881C29.3797 107.395 31.8799 106.832 37.1756 106.922C45.0744 107.056 47.4077 107.017 48.7007 106.904C50.4509 106.751 57.4158 107.188 58.3483 107.041L58.3476 107.041L58.348 107.041Z" fill="#01984A"/>
<path d="M40.0772 54.5173C39.2264 52.1192 40.9787 51.9939 38.8362 52.0905C33.5929 52.3272 14.0431 52.0319 18.3429 52.7947C27.0579 54.3399 26.5615 54.8947 31.6885 54.8064C40.4832 54.6549 40.3532 55.2963 40.0772 54.5173Z" fill="#01984A"/>
<path d="M62.9685 54.1057C64.3747 53.6761 69.3124 53.0672 69.7988 52.6556C69.0505 52.1916 50.6365 52.3258 49.4721 52.1726C48.7618 52.3831 48.0028 51.9063 48.0335 52.3524C48.0535 52.6366 48.2446 53.4412 47.7899 54.6959C47.6281 55.1434 47.5139 54.9885 50.5182 54.8888C54.398 54.7601 58.9158 55.3452 62.9678 54.107H62.9685V54.1057Z" fill="#01984A"/>
<path d="M44.5714 44.7182C44.3182 44.3363 43.327 44.3342 43.2294 44.9873C43.1462 45.5448 43.0724 46.5812 43.0482 47.1073C42.9272 49.7304 42.6353 48.8396 44.7595 49.0373C45.1503 49.0738 44.8167 45.0874 44.5714 44.7182Z" fill="#01984A"/>
<path d="M19.813 94.4931C24.2056 93.8724 27.5141 90.9775 28.3518 89.0345C29.345 86.7289 30.023 86.7406 30.1744 82.6561C30.1792 82.5205 25.5307 82.3291 4.59129 82.3505C4.30701 82.9025 4.55541 83.8626 4.61268 84.6547C4.8145 87.4423 7.56346 91.0831 9.7794 92.4417C11.1608 93.289 14.1526 94.2416 14.8443 94.344C16.0715 94.5265 17.2773 94.8512 19.8137 94.4927H19.813V94.4931Z" fill="#01984A"/>
<path d="M70.1032 56.0211C70.5079 56.0418 71.1851 55.3715 71.1893 54.973C71.1969 54.1843 70.5638 53.6727 70.0021 53.6844C68.6008 53.7134 68.2485 55.9255 70.1032 56.0211Z" fill="#01984A"/>
<path d="M43.9625 56.2257C45.602 56.2857 47.1362 54.7584 47.1583 53.1683C47.1817 51.4502 45.6972 49.9281 43.9694 49.9346C42.1765 49.9422 40.7378 51.4792 40.764 53.1628C40.7889 54.7356 42.2844 56.2736 43.9632 56.2243L43.9625 56.225V56.2257Z" fill="#01984A"/>
<path d="M18.574 54.8781C18.5733 54.3379 17.9633 53.5909 17.5059 53.6358C15.5842 53.8259 16.0934 55.9676 17.2547 56.0173C17.9602 56.0463 18.5747 55.486 18.574 54.8781Z" fill="#01984A"/>
<path d="M70.4386 51.897C71.2024 52.2644 70.6704 52.7788 71.0772 53.0369C71.4729 53.2908 71.7751 53.6669 71.9378 54.1081C72.1005 54.5492 72.1148 55.0314 71.9786 55.4815C71.8776 55.8079 71.664 55.968 71.7599 56.1698C71.7675 56.1857 82.4818 80.9753 82.5115 81.0826C82.7281 81.8747 84.2068 80.6055 83.661 84.9563C83.1435 89.0852 79.3951 92.6208 78.0075 93.4132C73.014 96.266 67.2663 96.086 63.7569 94.4389C60.2562 92.796 57.6491 89.5517 56.6603 85.9964C56.4578 85.2681 56.3381 84.7831 56.2259 82.8497C56.2114 82.5985 56.3601 82.1524 56.3532 82.0965C56.2839 81.517 56.9018 81.6456 56.9397 81.3517C57.0181 80.7341 57.5687 80.1383 61.4906 71.4398C61.4989 71.4219 63.0859 67.5717 63.2933 67.1311C63.3029 67.1091 67.9715 57.5056 68.3178 56.412C68.4534 55.9838 67.6413 55.6575 68.0094 54.2205C68.0598 54.0229 67.9618 54.1036 66.3617 54.4003C60.2321 55.536 61.0908 56.0811 51.1268 55.7444C49.9287 55.7037 48.2954 56.0163 47.435 55.8213C47.2114 55.7703 47.0579 55.8821 46.9058 56.0239C46.3041 56.5848 46.0453 56.6131 46.0798 57.0358C47.347 72.5873 47.267 74.785 48.6045 84.6465C49.23 89.2612 49.1752 94.9416 47.643 99.3397C47.2818 100.376 47.1414 100.325 47.3574 100.496C52.5393 104.606 48.698 103.083 54.6924 103.628C58.2783 103.691 60.8586 107.795 58.4139 108.084C58.3449 108.093 34.1225 107.731 32.6034 108.04C32.5807 108.045 30.0677 108.123 29.909 108.12C27.7458 108.082 28.4669 105.919 30.1229 104.723C31.7396 103.556 34.5065 103.584 35.0091 103.535C35.0781 103.528 36.9729 103.429 37.0422 103.429C37.599 103.429 38.771 101.729 40.2607 100.752C40.2835 100.737 40.3 100.716 40.3214 100.698C40.4425 100.594 40.6388 100.506 40.6661 100.378C40.6695 100.362 38.0506 93.92 39.2064 85.5755C41.4358 69.4796 40.7303 66.8061 41.334 63.0381C41.4109 62.5582 41.9426 57.0075 41.7946 56.7287C41.7073 56.5634 41.4875 56.4727 41.3388 56.3351C40.9783 56.0018 40.7154 55.644 40.5488 55.6785C39.3106 55.9352 38.9418 55.6316 35.3296 55.6578C31.0872 55.6875 31.5119 55.7206 31.0837 55.7179C25.1804 55.6737 24.753 54.728 21.995 54.4603C21.5931 54.421 21.216 54.2695 20.8113 54.2333C19.7336 54.1378 19.2371 53.761 19.3872 54.2368C19.6011 54.9161 19.4134 55.6361 19.1992 55.9107C19.0146 56.1474 19.0049 56.3837 19.1502 56.6542C19.1598 56.6714 21.325 61.4445 21.3347 61.4624C24.2075 66.8903 25.6934 70.8809 26.2744 72.2678C28.3144 77.1382 29.4915 78.9605 30.2899 80.8815C30.3647 81.0626 30.3634 81.2861 30.471 81.4383C30.6066 81.6298 31.0644 81.7391 31.0492 81.9544C31.0202 82.3694 31.2538 82.7734 31.0886 83.1968C31.0616 83.2658 31.3749 90.1264 24.0619 94.2437C17.8357 97.7492 5.67757 94.4062 3.85908 85.8453C3.69727 85.0843 3.47233 83.135 3.74005 82.2428C4.0747 81.1292 4.63671 81.6825 4.83094 81.1982C5.93839 78.4278 12.0646 64.663 12.0742 64.6465C12.4265 64.0455 12.8822 62.5033 15.1261 57.2831C15.6243 56.1239 15.696 56.2053 15.6067 55.959C14.6162 53.237 16.761 53.2728 16.6437 52.5135C16.4433 51.2166 19.4979 51.4474 29.3073 51.3229C40.3018 51.1839 40.1814 51.3919 40.3032 51.1314C40.5881 50.5256 41.246 49.7963 41.9488 49.4478C42.3356 49.2563 42.0775 49.0742 42.1072 48.3832C42.2455 45.136 42.1479 43.4227 44.0454 43.5349C45.7742 43.638 45.66 44.9411 45.7648 46.9659C45.7697 47.0587 45.8542 48.8862 45.8207 48.9693C45.5489 49.6307 46.7215 49.3636 47.5778 51.0445C47.6541 51.1946 47.7196 51.3646 47.8835 51.366C53.053 51.4074 68.8754 51.1438 70.441 51.8966L70.4403 51.8973L70.4386 51.897ZM81.4917 81.4383C81.7608 81.4328 81.6776 81.4893 81.0932 80.1483C70.9081 56.7891 71.3176 56.6162 70.9378 56.758C69.5226 57.2907 69.1655 56.6079 69.0793 56.9426C69.0613 57.0126 68.972 57.0609 68.9423 57.1306C67.8707 59.6464 61.9371 72.557 61.354 74.1847C60.7051 75.9956 58.9404 79.0913 57.8657 81.567C58.3777 81.598 62.5074 81.3586 63.63 81.5C63.699 81.509 81.4227 81.4393 81.4913 81.4379L81.4917 81.4383ZM29.0072 80.4257C28.4076 79.0885 28.5445 79.5097 28.2088 78.8529C26.5632 75.6364 19.4938 59.2941 18.3543 57.0306C18.1855 56.6959 18.1828 56.8957 17.637 56.9536C16.5171 57.0727 16.3615 56.443 16.2018 56.8691C12.4761 66.7775 5.43573 81.4693 5.90803 81.4352C5.92459 81.4352 7.11174 81.3307 7.12761 81.3258C8.24748 81.0954 26.0015 81.6115 27.4867 81.489C29.5702 81.3175 29.8807 82.3743 29.0072 80.4264V80.4257ZM72.1442 94.4217C77.7246 93.5147 82.0554 89.3264 82.6474 85.4962C82.8085 84.4529 82.9545 83.3572 82.8758 82.4995C82.8496 82.2118 82.5363 82.377 81.816 82.3984C80.9293 82.4246 81.8111 82.0269 61.2902 82.4391C60.9007 82.4467 57.5811 82.5747 57.1916 82.5651C56.8942 88.754 62.6077 95.9714 72.1442 94.422V94.4217ZM19.8126 94.4924C24.2051 93.8717 27.5137 90.9769 28.3513 89.0338C29.3446 86.7282 30.0225 86.7399 30.174 82.6554C30.1788 82.5199 25.5303 82.3284 4.59082 82.3498C4.30654 82.9018 4.55494 83.8619 4.61221 84.654C4.81404 87.4416 7.563 91.0824 9.77893 92.441C11.1603 93.2884 14.1522 94.2409 14.8439 94.3434C16.071 94.5259 17.2761 94.8509 19.8126 94.4924ZM45.8439 99.982C46.2485 99.9952 46.2458 99.9952 46.3793 99.7809C46.5459 99.5146 46.6456 99.2241 46.724 98.9232C47.1307 97.3607 47.2628 97.7278 47.6206 95.6671C48.1257 92.7557 47.9922 87.1201 47.8121 86.131C46.2841 77.774 45.788 62.0621 45.2615 58.286C45.2373 58.1111 44.8513 58.1767 44.2882 58.0932C42.6488 57.8503 42.6605 57.636 42.6454 57.921C41.0628 87.4192 38.1159 90.1723 41.2819 99.2224C41.827 100.781 41.5738 99.4007 45.8439 99.9813V99.982ZM58.347 107.04C57.883 105.855 56.9677 104.591 54.1439 104.554C50.5317 104.507 51.9586 104.371 48.2247 104.199C47.8656 104.182 47.0424 103.979 47.2121 103.565C47.4205 103.058 47.6416 103.345 48.2178 103.292C48.4296 103.273 48.628 103.405 48.8433 103.322C48.9054 103.298 49.0524 103.358 49.0572 103.345C49.0862 103.264 47.3318 101.419 46.2244 101.016C45.1432 100.623 42.0485 100.647 41.1998 101.223C40.7099 101.557 38.3908 103.411 38.9808 103.351C39.2029 103.328 39.7187 103.296 40.3194 103.253C40.6395 103.23 40.9725 103.729 40.5726 103.933C39.4327 104.513 33.6019 104.432 32.9191 104.6C31.1662 105.032 30.3016 105.304 29.6057 106.88C29.3787 107.394 31.8789 106.831 37.1747 106.92C45.0735 107.055 47.4067 107.015 48.6998 106.902C50.4499 106.75 57.4148 107.187 58.3473 107.039L58.3467 107.04L58.347 107.04ZM40.0761 54.5176C39.2254 52.1188 40.9776 51.9936 38.8352 52.0902C33.5919 52.3268 14.0421 52.0315 18.3418 52.7943C27.0569 54.3396 26.5604 54.8943 31.6875 54.806C40.4822 54.6546 40.3521 55.2959 40.0761 54.5169V54.5176ZM62.9676 54.1053C64.3738 53.6758 69.3114 53.0669 69.7979 52.6553C69.0496 52.1913 50.6356 52.3255 49.4712 52.1723C48.7608 52.3827 48.0018 51.9059 48.0325 52.352C48.0525 52.6363 48.2437 53.4408 47.789 54.6956C47.6272 55.1431 47.513 54.9882 50.5172 54.8885C54.3971 54.7598 58.9149 55.3449 62.9669 54.1067H62.9676V54.1053ZM43.9615 56.224C45.601 56.2847 47.1352 54.7581 47.1573 53.168C47.1807 51.4492 45.6962 49.927 43.9684 49.9336C42.1755 49.9412 40.7368 51.4781 40.763 53.1617C40.7879 54.7346 42.2835 56.2726 43.9622 56.2233L43.9615 56.224ZM44.5708 44.7175C44.3176 44.3356 43.3264 44.3335 43.2288 44.9866C43.1456 45.5441 43.0718 46.5805 43.0476 47.1067C42.9265 49.7297 42.6347 48.8389 44.7588 49.0366C45.1497 49.0731 44.8161 45.0867 44.5708 44.7175ZM18.5719 54.8781C18.5713 54.3379 17.9613 53.5909 17.5038 53.6358C15.5822 53.8259 16.0914 55.9676 17.2527 56.0173C17.9582 56.0463 18.5726 55.486 18.5719 54.8781ZM70.1018 56.0215C70.5065 56.0421 71.1838 55.3718 71.1879 54.9733C71.1955 54.1847 70.5624 53.673 70.0008 53.6848C68.5994 53.7137 68.2471 55.9259 70.1018 56.0215Z" fill="#2B1F2D"/>
<path d="M133.404 66.9269C133.451 64.7451 132.014 64.2 129.841 63.9879C128.705 63.8764 126.441 65.8146 125.829 66.555C123.595 69.2522 122.035 70.9427 121.748 71.2932C121.732 71.3132 112.522 82.9163 112.406 83.0505C112.255 83.2247 112.504 83.3003 112.695 83.6987C113.295 84.9514 117.221 87.7266 117.818 87.0218C118.998 85.628 118.593 86.0561 121.043 83.3265C121.721 82.572 121.398 82.7158 121.893 81.894C124.95 76.8215 123.731 78.6214 124.834 76.5476C124.844 76.5296 127.543 73.032 128.165 72.2823C128.993 71.285 129.7 73.1021 129.95 72.8557C130.52 72.2941 133.62 68.3083 133.405 66.9262L133.404 66.9269H133.404Z" fill="#01984A"/>
<path d="M90.1849 117.668C90.4416 117.782 90.7155 117.853 90.9736 117.966C91.2448 118.085 91.4766 118.144 91.6315 117.801C91.7837 117.462 98.5074 110.42 103.561 104.286C103.574 104.27 112.914 92.6611 113.375 92.1271C115.003 90.2454 115.099 90.3783 114.79 90.2496C112.117 89.1394 111.629 88.3617 110.052 86.19C109.011 87.3167 99.1446 100.545 99.1315 100.563C96.9014 103.608 95.0632 105.632 93.8488 107.35C92.9011 108.69 91.0826 111.7 88.9602 114.316C88.088 115.39 88.7963 117.052 90.1846 117.668H90.1849Z" fill="#01984A"/>
<path d="M115.376 87.4203C114.996 87.1822 113.223 86.003 112.937 85.7056C111.676 84.3946 111.871 83.7495 111.559 84.1624C110.724 85.2678 110.685 85.2271 110.881 85.5507C111.938 87.2961 113.276 88.7009 115.613 89.3388C115.854 89.4043 115.84 89.3519 116.691 88.3573C116.947 88.0578 116.316 88.0071 115.377 87.4199L115.376 87.4203Z" fill="#01984A"/>
<path d="M125.133 82.0489C123.562 85.1943 120.413 88.2186 116.317 93.3263C114.367 95.7579 114.358 95.7009 114.655 95.802C116.083 96.2885 126.4 82.6972 127.279 81.4714C129.553 78.3026 129.862 77.8669 129.286 74.1343C129.23 73.7717 128.97 73.5195 128.769 73.2328C128.697 73.1303 128.656 73.1448 128.596 73.2197C127.155 75.021 125.081 76.8895 125.745 77.664C126.383 78.4075 125.572 81.1723 125.134 82.0489H125.132H125.133Z" fill="#01984A"/>
<path d="M84.2025 124.29C83.4722 124.29 83.0772 123.664 83.1496 123.302C83.2424 122.832 83.6595 122.111 84.2143 122.242C84.4268 122.293 84.4071 122.25 85.6419 120.668C86.6593 119.363 86.5717 119.737 86.1677 119.042C86.1201 118.96 86.0093 118.914 85.9296 118.85C85.7047 119.25 85.6785 119.09 85.3893 119.466C84.1905 121.021 83.8268 121.649 83.1003 122.091C81.8496 122.852 81.7396 122.947 81.6357 123.248C80.3334 127.001 77.5682 130.727 77.5337 131.187C77.7786 131.187 77.6217 131.283 77.9729 130.875C78.1657 130.652 79.573 129.017 79.7955 128.79C82.0063 126.534 84.2891 125.502 85.3328 125.354C85.7837 125.29 85.6598 125.219 87.103 123.126C88.6758 120.846 88.3715 122.075 87.1992 120.51C86.8901 120.097 87.0091 120.389 85.4207 122.354C84.9471 122.941 85.3293 122.893 85.2182 123.113C84.9767 123.592 84.7056 124.349 84.2043 124.289L84.2029 124.289L84.2025 124.29Z" fill="#01984A"/>
<path d="M90.536 120.181C91.2857 120.024 91.5348 120.039 91.5972 119.739C91.7093 119.2 90.9117 118.885 90.5574 118.821C89.8256 118.691 89.245 118.302 88.7002 117.829C88.1503 117.35 87.9378 116.676 87.6632 116.041C87.5538 115.788 87.7301 115.216 87.4541 115.308C87.2937 115.361 87.1243 115.297 86.9628 115.386C86.7275 115.515 86.6051 116.008 86.5381 116.145C86.3342 116.567 86.7213 117.518 87.0494 117.939C88.4619 119.756 88.8134 119.703 90.5363 120.181L90.536 120.181Z" fill="#01984A"/>
<path d="M90.6379 121.093C89.9061 121.093 89.8327 121.042 89.6922 121.242C88.5092 122.923 88.9971 122.098 87.0451 125.016C86.5 125.83 86.3547 126.315 85.6043 126.415C83.4836 126.701 81.1939 128.71 79.8697 130.226C79.2284 130.96 78.8023 131.493 78.4849 131.853C77.4271 133.056 75.9547 131.799 76.5039 130.747C76.7461 130.282 77.2267 129.617 77.8991 128.519C81.0321 123.408 79.9743 123.009 81.8228 121.71C83.4615 120.559 82.2454 121.992 85.1065 118.453C85.2255 118.305 85.3763 118.181 85.4884 118.03C86.0038 117.332 85.2942 116.905 85.6502 115.866C86.4054 113.664 87.8561 114.485 88.1025 114.09C90.7145 109.908 113.1 80.3643 115.206 78.0262C115.685 77.4956 118.611 73.8086 119.633 72.3858C120.772 70.8023 123.251 68.2693 123.477 67.8839C123.544 67.7697 126.422 64.1728 128.729 63.2188C129.943 62.7165 133.41 63.1212 134.163 65.3958C134.877 67.5514 133.764 69.531 132.406 71.385C129.879 74.8374 130.258 73.2873 130.452 75.5733C130.526 76.4537 130.614 77.3483 130.315 78.1467C129.039 81.5432 121.298 90.4818 118.579 93.9225C118 94.6556 117.274 95.2397 116.614 95.8903C115.797 96.6949 114.255 97.3352 113.345 96.6352C112.757 96.1829 113.19 95.6275 113.704 95.0516C114.41 94.2616 113.631 94.835 119.188 88.3473C119.849 87.5752 124.964 81.6812 124.708 80.6593C124.571 80.739 124.698 80.651 122.711 82.9273C107.846 99.9586 110.245 97.6633 104.979 104.025C96.9855 113.683 91.8385 118.341 92.2998 118.728C92.878 119.213 92.4043 121.232 91.0457 121.11C90.8256 121.09 90.6389 121.127 90.6375 121.094L90.6379 121.093ZM90.1856 117.669C90.4423 117.782 90.7162 117.853 90.9743 117.966C91.2454 118.085 91.4773 118.145 91.6322 117.801C91.7843 117.463 98.508 110.42 103.562 104.287C103.575 104.271 112.914 92.6615 113.376 92.1274C115.003 90.2458 115.1 90.3786 114.791 90.2499C112.118 89.1397 111.629 88.3621 110.053 86.1903C109.011 87.3171 99.1452 100.546 99.1321 100.564C96.9021 103.609 95.0639 105.632 93.8495 107.35C92.9018 108.69 91.0833 111.7 88.9608 114.316C88.0887 115.39 88.7973 117.052 90.1856 117.669ZM133.404 66.9273C133.452 64.7455 132.015 64.2004 129.841 63.9875C128.706 63.8768 126.442 65.815 125.829 66.5547C123.596 69.2526 122.036 70.9431 121.749 71.2936C121.733 71.3136 112.522 82.9166 112.407 83.0508C112.256 83.2251 112.505 83.3006 112.696 83.6991C113.295 84.9518 117.222 87.727 117.819 87.0221C118.998 85.6283 118.594 86.0565 121.044 83.3268C121.721 82.5723 121.398 82.7162 121.894 81.8944C124.951 76.8219 123.731 78.6217 124.835 76.5479C124.844 76.53 127.544 73.0324 128.166 72.2827C128.994 71.2853 129.701 73.1024 129.951 72.8561C130.521 72.2944 133.621 68.3086 133.406 66.9266H133.405L133.404 66.9273ZM125.535 81.1526C124.149 84.6423 120.8 87.7359 116.317 93.327C114.367 95.7586 114.358 95.7016 114.655 95.8027C116.083 96.2892 126.4 82.6979 127.279 81.4721C129.553 78.3033 129.862 77.8675 129.286 74.135C129.23 73.7724 128.97 73.5202 128.769 73.2335C128.697 73.131 128.656 73.1455 128.596 73.2204C127.155 75.0216 125.304 76.8971 125.969 77.6716C126.028 77.7406 126.301 79.2258 125.536 81.1523L125.535 81.153L125.535 81.1526ZM84.2023 124.291C83.4719 124.291 83.0769 123.666 83.1493 123.303C83.2421 122.833 83.6592 122.112 84.214 122.244C84.4265 122.294 84.4068 122.252 85.6416 120.669C86.659 119.365 86.5714 119.739 86.1674 119.043C86.1198 118.961 86.009 118.916 85.9293 118.851C85.7044 119.251 85.6782 119.092 85.3891 119.467C84.1902 121.023 83.8265 121.65 83.1 122.093C81.8494 122.854 81.7393 122.948 81.6355 123.249C80.5597 126.349 78.4859 129.431 77.7777 130.669C77.3385 131.435 77.591 131.32 77.9733 130.876C78.1661 130.653 79.5734 129.018 79.7959 128.791C82.0067 126.535 84.2895 125.503 85.3332 125.355C85.7841 125.291 85.6602 125.221 87.1034 123.128C88.6762 120.847 88.3719 122.076 87.1996 120.512C86.8905 120.099 87.0095 120.391 85.4211 122.356C84.9475 122.942 85.3297 122.895 85.2186 123.115C84.9771 123.593 84.706 124.351 84.2047 124.29L84.2026 124.291L84.2023 124.291ZM115.376 87.4209C114.996 87.1829 113.223 86.0037 112.937 85.7063C111.676 84.3953 111.871 83.7501 111.559 84.1631C110.724 85.2685 110.685 85.2278 110.881 85.5514C111.938 87.2967 113.276 88.7016 115.613 89.3395C115.854 89.405 115.84 89.3526 116.691 88.358C116.947 88.0585 116.316 88.0078 115.377 87.4206L115.376 87.4209ZM90.5365 120.182C91.2861 120.025 91.5352 120.04 91.5977 119.74C91.7098 119.201 90.9122 118.885 90.5578 118.822C89.8261 118.691 89.2455 118.303 88.7007 117.83C88.1508 117.351 87.9383 116.677 87.6636 116.041C87.5543 115.788 87.7306 115.216 87.4546 115.308C87.2941 115.362 87.1247 115.298 86.9633 115.387C86.728 115.515 86.6055 116.009 86.5386 116.146C86.3347 116.568 86.7218 117.519 87.0499 117.94C88.4623 119.756 88.8132 119.703 90.5361 120.182H90.5368L90.5365 120.182Z" fill="#2B1F2D"/>
</svg>
