<svg width="646" height="220" viewBox="0 0 646 220" fill="none" xmlns="http://www.w3.org/2000/svg">
<rect width="645.625" height="220" rx="20" fill="#EFADF9"/>
<path d="M45.7964 76C45.7964 73.8333 46.1797 71.7167 46.9464 69.65C47.7131 67.55 48.8297 65.65 50.2964 63.95C51.7964 62.2167 53.6131 60.85 55.7464 59.85C57.8797 58.8167 60.2964 58.3 62.9964 58.3C66.1964 58.3 68.9631 59.0333 71.2964 60.5C73.6297 61.9333 75.3631 63.7833 76.4964 66.05L72.0964 69C71.4297 67.5667 70.5797 66.4333 69.5464 65.6C68.5464 64.7667 67.4464 64.1833 66.2464 63.85C65.0797 63.5167 63.9297 63.35 62.7964 63.35C60.9297 63.35 59.2964 63.7333 57.8964 64.5C56.4964 65.2333 55.3131 66.2167 54.3464 67.45C53.4131 68.6833 52.6964 70.0667 52.1964 71.6C51.7297 73.1333 51.4964 74.6667 51.4964 76.2C51.4964 77.9 51.7797 79.55 52.3464 81.15C52.9131 82.7167 53.6964 84.1167 54.6964 85.35C55.7297 86.55 56.9464 87.5 58.3464 88.2C59.7464 88.9 61.2797 89.25 62.9464 89.25C64.0797 89.25 65.2631 89.05 66.4964 88.65C67.7297 88.25 68.8631 87.6333 69.8964 86.8C70.9631 85.9333 71.7964 84.8 72.3964 83.4L77.0464 86.05C76.3131 87.8167 75.1631 89.3167 73.5964 90.55C72.0631 91.7833 70.3297 92.7167 68.3964 93.35C66.4964 93.9833 64.6131 94.3 62.7464 94.3C60.2464 94.3 57.9631 93.7833 55.8964 92.75C53.8297 91.6833 52.0464 90.2833 50.5464 88.55C49.0464 86.7833 47.8797 84.8167 47.0464 82.65C46.2131 80.45 45.7964 78.2333 45.7964 76ZM96.5261 72.6C94.3927 72.6333 92.4927 73.1167 90.8261 74.05C89.1927 74.9833 88.0261 76.3 87.3261 78V94H81.8261V67.85H86.9261V73.7C87.8261 71.9 89.0094 70.4667 90.4761 69.4C91.9427 68.3 93.4927 67.7 95.1261 67.6C95.4594 67.6 95.7261 67.6 95.9261 67.6C96.1594 67.6 96.3594 67.6167 96.5261 67.65V72.6ZM112.189 94.5C110.156 94.5 108.306 94.15 106.639 93.45C105.006 92.7167 103.589 91.7333 102.389 90.5C101.189 89.2333 100.256 87.8 99.589 86.2C98.9556 84.5667 98.639 82.8333 98.639 81C98.639 78.5333 99.2056 76.2833 100.339 74.25C101.472 72.1833 103.056 70.5333 105.089 69.3C107.122 68.0333 109.506 67.4 112.239 67.4C114.972 67.4 117.322 68.0333 119.289 69.3C121.289 70.5333 122.839 72.1667 123.939 74.2C125.039 76.2333 125.589 78.4167 125.589 80.75C125.589 81.15 125.572 81.5333 125.539 81.9C125.506 82.2333 125.472 82.5167 125.439 82.75H104.489C104.589 84.2833 105.006 85.6333 105.739 86.8C106.506 87.9333 107.472 88.8333 108.639 89.5C109.806 90.1333 111.056 90.45 112.389 90.45C113.856 90.45 115.239 90.0833 116.539 89.35C117.872 88.6167 118.772 87.65 119.239 86.45L123.939 87.8C123.372 89.0667 122.506 90.2167 121.339 91.25C120.206 92.25 118.856 93.05 117.289 93.65C115.722 94.2167 114.022 94.5 112.189 94.5ZM104.339 79.1H120.139C120.039 77.6 119.606 76.2833 118.839 75.15C118.106 73.9833 117.156 73.0833 115.989 72.45C114.856 71.7833 113.589 71.45 112.189 71.45C110.822 71.45 109.556 71.7833 108.389 72.45C107.256 73.0833 106.322 73.9833 105.589 75.15C104.856 76.2833 104.439 77.6 104.339 79.1ZM128.475 86.35C128.475 84.6833 128.942 83.2333 129.875 82C130.842 80.7333 132.159 79.7667 133.825 79.1C135.492 78.4 137.425 78.05 139.625 78.05C140.792 78.05 141.975 78.1333 143.175 78.3C144.409 78.4667 145.492 78.7333 146.425 79.1V77.45C146.425 75.6167 145.875 74.1833 144.775 73.15C143.675 72.1167 142.092 71.6 140.025 71.6C138.559 71.6 137.175 71.8667 135.875 72.4C134.575 72.9 133.192 73.6167 131.725 74.55L129.875 70.85C131.609 69.6833 133.342 68.8167 135.075 68.25C136.842 67.6833 138.692 67.4 140.625 67.4C144.125 67.4 146.875 68.3333 148.875 70.2C150.909 72.0333 151.925 74.65 151.925 78.05V87.8C151.925 88.4333 152.025 88.8833 152.225 89.15C152.459 89.4167 152.842 89.5667 153.375 89.6V94C152.875 94.1 152.425 94.1667 152.025 94.2C151.625 94.2333 151.292 94.25 151.025 94.25C149.859 94.25 148.975 93.9667 148.375 93.4C147.775 92.8333 147.425 92.1667 147.325 91.4L147.175 89.9C146.042 91.3667 144.592 92.5 142.825 93.3C141.059 94.1 139.275 94.5 137.475 94.5C135.742 94.5 134.192 94.15 132.825 93.45C131.459 92.7167 130.392 91.7333 129.625 90.5C128.859 89.2667 128.475 87.8833 128.475 86.35ZM145.125 87.95C145.525 87.5167 145.842 87.0833 146.075 86.65C146.309 86.2167 146.425 85.8333 146.425 85.5V82.5C145.492 82.1333 144.509 81.8667 143.475 81.7C142.442 81.5 141.425 81.4 140.425 81.4C138.425 81.4 136.792 81.8 135.525 82.6C134.292 83.4 133.675 84.5 133.675 85.9C133.675 86.6667 133.875 87.4 134.275 88.1C134.709 88.8 135.309 89.3667 136.075 89.8C136.875 90.2333 137.859 90.45 139.025 90.45C140.225 90.45 141.375 90.2167 142.475 89.75C143.575 89.2833 144.459 88.6833 145.125 87.95ZM173.253 92.65C172.786 92.8833 172.203 93.1333 171.503 93.4C170.803 93.6667 170.003 93.9 169.103 94.1C168.236 94.3 167.336 94.4 166.403 94.4C165.269 94.4 164.219 94.2 163.253 93.8C162.286 93.4 161.503 92.7667 160.903 91.9C160.336 91 160.053 89.85 160.053 88.45V72.1H156.603V67.85H160.053V59.25H165.553V67.85H171.253V72.1H165.553V86.7C165.619 87.6 165.903 88.2667 166.403 88.7C166.936 89.1333 167.586 89.35 168.353 89.35C169.119 89.35 169.853 89.2167 170.553 88.95C171.253 88.6833 171.769 88.4667 172.103 88.3L173.253 92.65ZM188.87 94.5C186.837 94.5 184.987 94.15 183.32 93.45C181.687 92.7167 180.27 91.7333 179.07 90.5C177.87 89.2333 176.937 87.8 176.27 86.2C175.637 84.5667 175.32 82.8333 175.32 81C175.32 78.5333 175.887 76.2833 177.02 74.25C178.154 72.1833 179.737 70.5333 181.77 69.3C183.804 68.0333 186.187 67.4 188.92 67.4C191.654 67.4 194.004 68.0333 195.97 69.3C197.97 70.5333 199.52 72.1667 200.62 74.2C201.72 76.2333 202.27 78.4167 202.27 80.75C202.27 81.15 202.254 81.5333 202.22 81.9C202.187 82.2333 202.154 82.5167 202.12 82.75H181.17C181.27 84.2833 181.687 85.6333 182.42 86.8C183.187 87.9333 184.154 88.8333 185.32 89.5C186.487 90.1333 187.737 90.45 189.07 90.45C190.537 90.45 191.92 90.0833 193.22 89.35C194.554 88.6167 195.454 87.65 195.92 86.45L200.62 87.8C200.054 89.0667 199.187 90.2167 198.02 91.25C196.887 92.25 195.537 93.05 193.97 93.65C192.404 94.2167 190.704 94.5 188.87 94.5ZM181.02 79.1H196.82C196.72 77.6 196.287 76.2833 195.52 75.15C194.787 73.9833 193.837 73.0833 192.67 72.45C191.537 71.7833 190.27 71.45 188.87 71.45C187.504 71.45 186.237 71.7833 185.07 72.45C183.937 73.0833 183.004 73.9833 182.27 75.15C181.537 76.2833 181.12 77.6 181.02 79.1ZM48.0464 159V123.5H63.4964C65.0964 123.5 66.5631 123.833 67.8964 124.5C69.2297 125.167 70.3797 126.05 71.3464 127.15C72.3464 128.25 73.1131 129.483 73.6464 130.85C74.2131 132.217 74.4964 133.617 74.4964 135.05C74.4964 136.617 74.2131 138.117 73.6464 139.55C73.0797 140.983 72.2631 142.217 71.1964 143.25C70.1631 144.283 68.9464 145.033 67.5464 145.5L75.8964 159H69.5964L61.8964 146.65H53.6464V159H48.0464ZM53.6464 141.7H63.4464C64.4797 141.7 65.3964 141.4 66.1964 140.8C66.9964 140.2 67.6297 139.4 68.0964 138.4C68.5631 137.367 68.7964 136.25 68.7964 135.05C68.7964 133.817 68.5297 132.717 67.9964 131.75C67.4631 130.75 66.7631 129.95 65.8964 129.35C65.0631 128.75 64.1464 128.45 63.1464 128.45H53.6464V141.7ZM91.7229 159.5C89.6896 159.5 87.8396 159.15 86.1729 158.45C84.5396 157.717 83.1229 156.733 81.9229 155.5C80.7229 154.233 79.7896 152.8 79.1229 151.2C78.4896 149.567 78.1729 147.833 78.1729 146C78.1729 143.533 78.7396 141.283 79.8729 139.25C81.0063 137.183 82.5896 135.533 84.6229 134.3C86.6563 133.033 89.0396 132.4 91.7729 132.4C94.5063 132.4 96.8563 133.033 98.8229 134.3C100.823 135.533 102.373 137.167 103.473 139.2C104.573 141.233 105.123 143.417 105.123 145.75C105.123 146.15 105.106 146.533 105.073 146.9C105.04 147.233 105.006 147.517 104.973 147.75H84.0229C84.1229 149.283 84.5396 150.633 85.2729 151.8C86.0396 152.933 87.0063 153.833 88.1729 154.5C89.3396 155.133 90.5896 155.45 91.9229 155.45C93.3896 155.45 94.7729 155.083 96.0729 154.35C97.4063 153.617 98.3063 152.65 98.773 151.45L103.473 152.8C102.906 154.067 102.04 155.217 100.873 156.25C99.7396 157.25 98.3896 158.05 96.823 158.65C95.2563 159.217 93.5563 159.5 91.7229 159.5ZM83.8729 144.1H99.6729C99.5729 142.6 99.1396 141.283 98.3729 140.15C97.6396 138.983 96.6896 138.083 95.5229 137.45C94.3896 136.783 93.1229 136.45 91.7229 136.45C90.3563 136.45 89.0896 136.783 87.9229 137.45C86.7896 138.083 85.8563 138.983 85.1229 140.15C84.3896 141.283 83.9729 142.6 83.8729 144.1ZM119.209 159.5C117.009 159.5 114.926 159.15 112.959 158.45C110.993 157.717 109.309 156.633 107.909 155.2L109.959 151.5C111.459 152.833 112.959 153.8 114.459 154.4C115.993 155 117.509 155.3 119.009 155.3C120.543 155.3 121.793 155.017 122.759 154.45C123.726 153.85 124.209 152.983 124.209 151.85C124.209 151.017 123.959 150.4 123.459 150C122.959 149.6 122.226 149.25 121.259 148.95C120.326 148.65 119.193 148.317 117.859 147.95C115.993 147.383 114.426 146.8 113.159 146.2C111.893 145.567 110.943 144.8 110.309 143.9C109.676 143 109.359 141.85 109.359 140.45C109.359 138.75 109.793 137.3 110.659 136.1C111.526 134.9 112.726 133.983 114.259 133.35C115.826 132.717 117.626 132.4 119.659 132.4C121.559 132.4 123.309 132.7 124.909 133.3C126.543 133.867 127.976 134.767 129.209 136L126.859 139.65C125.693 138.583 124.493 137.8 123.259 137.3C122.059 136.8 120.759 136.55 119.359 136.55C118.559 136.55 117.793 136.65 117.059 136.85C116.326 137.017 115.709 137.35 115.209 137.85C114.743 138.317 114.509 138.983 114.509 139.85C114.509 140.55 114.709 141.117 115.109 141.55C115.509 141.983 116.109 142.35 116.909 142.65C117.709 142.95 118.693 143.283 119.859 143.65C121.893 144.25 123.626 144.85 125.059 145.45C126.493 146.017 127.593 146.767 128.359 147.7C129.159 148.6 129.559 149.85 129.559 151.45C129.559 153.983 128.609 155.967 126.709 157.4C124.843 158.8 122.343 159.5 119.209 159.5ZM146.62 159.5C144.586 159.5 142.736 159.15 141.07 158.45C139.436 157.717 138.02 156.733 136.82 155.5C135.62 154.233 134.686 152.8 134.02 151.2C133.386 149.567 133.07 147.833 133.07 146C133.07 143.533 133.636 141.283 134.77 139.25C135.903 137.183 137.486 135.533 139.52 134.3C141.553 133.033 143.936 132.4 146.67 132.4C149.403 132.4 151.753 133.033 153.72 134.3C155.72 135.533 157.27 137.167 158.37 139.2C159.47 141.233 160.02 143.417 160.02 145.75C160.02 146.15 160.003 146.533 159.97 146.9C159.936 147.233 159.903 147.517 159.87 147.75L138.92 147.75C139.02 149.283 139.436 150.633 140.17 151.8C140.936 152.933 141.903 153.833 143.07 154.5C144.236 155.133 145.486 155.45 146.82 155.45C148.286 155.45 149.67 155.083 150.97 154.35C152.303 153.617 153.203 152.65 153.67 151.45L158.37 152.8C157.803 154.067 156.936 155.217 155.77 156.25C154.636 157.25 153.286 158.05 151.72 158.65C150.153 159.217 148.453 159.5 146.62 159.5ZM138.77 144.1L154.57 144.1C154.47 142.6 154.036 141.283 153.27 140.15C152.536 138.983 151.586 138.083 150.42 137.45C149.286 136.783 148.02 136.45 146.62 136.45C145.253 136.45 143.986 136.783 142.82 137.45C141.686 138.083 140.753 138.983 140.02 140.15C139.286 141.283 138.87 142.6 138.77 144.1ZM162.906 151.35C162.906 149.683 163.373 148.233 164.306 147C165.273 145.733 166.589 144.767 168.256 144.1C169.923 143.4 171.856 143.05 174.056 143.05C175.223 143.05 176.406 143.133 177.606 143.3C178.839 143.467 179.923 143.733 180.856 144.1V142.45C180.856 140.617 180.306 139.183 179.206 138.15C178.106 137.117 176.523 136.6 174.456 136.6C172.989 136.6 171.606 136.867 170.306 137.4C169.006 137.9 167.623 138.617 166.156 139.55L164.306 135.85C166.039 134.683 167.773 133.817 169.506 133.25C171.273 132.683 173.123 132.4 175.056 132.4C178.556 132.4 181.306 133.333 183.306 135.2C185.339 137.033 186.356 139.65 186.356 143.05V152.8C186.356 153.433 186.456 153.883 186.656 154.15C186.889 154.417 187.273 154.567 187.806 154.6V159C187.306 159.1 186.856 159.167 186.456 159.2C186.056 159.233 185.723 159.25 185.456 159.25C184.289 159.25 183.406 158.967 182.806 158.4C182.206 157.833 181.856 157.167 181.756 156.4L181.606 154.9C180.473 156.367 179.023 157.5 177.256 158.3C175.489 159.1 173.706 159.5 171.906 159.5C170.173 159.5 168.623 159.15 167.256 158.45C165.889 157.717 164.823 156.733 164.056 155.5C163.289 154.267 162.906 152.883 162.906 151.35ZM179.556 152.95C179.956 152.517 180.273 152.083 180.506 151.65C180.739 151.217 180.856 150.833 180.856 150.5V147.5C179.923 147.133 178.939 146.867 177.906 146.7C176.873 146.5 175.856 146.4 174.856 146.4C172.856 146.4 171.223 146.8 169.956 147.6C168.723 148.4 168.106 149.5 168.106 150.9C168.106 151.667 168.306 152.4 168.706 153.1C169.139 153.8 169.739 154.367 170.506 154.8C171.306 155.233 172.289 155.45 173.456 155.45C174.656 155.45 175.806 155.217 176.906 154.75C178.006 154.283 178.889 153.683 179.556 152.95ZM208.029 137.6C205.895 137.633 203.995 138.117 202.329 139.05C200.695 139.983 199.529 141.3 198.829 143V159H193.329V132.85H198.429V138.7C199.329 136.9 200.512 135.467 201.979 134.4C203.445 133.3 204.995 132.7 206.629 132.6C206.962 132.6 207.229 132.6 207.429 132.6C207.662 132.6 207.862 132.617 208.029 132.65V137.6ZM223.692 159.5C221.658 159.5 219.808 159.15 218.142 158.45C216.508 157.717 215.092 156.717 213.892 155.45C212.692 154.183 211.758 152.733 211.092 151.1C210.458 149.467 210.142 147.733 210.142 145.9C210.142 143.433 210.692 141.183 211.792 139.15C212.925 137.117 214.492 135.483 216.492 134.25C218.525 133.017 220.925 132.4 223.692 132.4C226.358 132.4 228.675 133 230.642 134.2C232.642 135.367 234.108 136.933 235.042 138.9L229.692 140.6C229.092 139.5 228.242 138.65 227.142 138.05C226.075 137.417 224.892 137.1 223.592 137.1C222.125 137.1 220.792 137.483 219.592 138.25C218.425 138.983 217.492 140.017 216.792 141.35C216.125 142.65 215.792 144.167 215.792 145.9C215.792 147.567 216.142 149.083 216.842 150.45C217.542 151.783 218.475 152.85 219.642 153.65C220.842 154.417 222.175 154.8 223.642 154.8C224.542 154.8 225.408 154.65 226.242 154.35C227.108 154.017 227.858 153.583 228.492 153.05C229.125 152.483 229.575 151.867 229.842 151.2L235.242 152.8C234.675 154.1 233.825 155.25 232.692 156.25C231.592 157.25 230.275 158.05 228.742 158.65C227.242 159.217 225.558 159.5 223.692 159.5ZM263.521 159H258.021V144.35C258.021 141.983 257.588 140.217 256.721 139.05C255.855 137.883 254.638 137.3 253.071 137.3C252.105 137.3 251.105 137.567 250.071 138.1C249.038 138.633 248.121 139.367 247.321 140.3C246.521 141.2 245.938 142.25 245.571 143.45V159H240.071V122.5H245.571V138.1C246.571 136.333 247.938 134.95 249.671 133.95C251.405 132.917 253.271 132.4 255.271 132.4C256.905 132.4 258.255 132.683 259.321 133.25C260.388 133.817 261.221 134.6 261.821 135.6C262.455 136.567 262.888 137.7 263.121 139C263.388 140.267 263.521 141.617 263.521 143.05V159Z" fill="#2B1F2D"/>
<rect x="401" y="35" width="103.09" height="133" rx="19" stroke="#2B1F2D" stroke-width="2"/>
<rect x="466.288" y="57.8864" width="5.65868" height="5.65868" rx="2.82934" fill="#2B1F2D"/>
<rect x="466.288" y="93.8864" width="5.65868" height="5.65868" rx="2.82934" fill="#2B1F2D"/>
<rect x="414.551" y="107.809" width="75.988" height="4.04192" rx="2.02096" fill="#2B1F2D"/>
<rect x="466.288" y="107" width="5.65868" height="5.65868" rx="2.82934" fill="#2B1F2D"/>
<rect x="414.551" y="58.6949" width="75.988" height="4.04192" rx="2.02096" fill="#2B1F2D"/>
<rect x="414.551" y="91" width="75.988" height="4.04192" rx="2.02096" fill="#2B1F2D"/>
<rect x="414.861" y="125" width="75.988" height="4.04192" rx="2.02096" fill="#2B1F2D"/>
<rect x="466.598" y="124" width="5.65868" height="5.65868" rx="2.82934" fill="#2B1F2D"/>
<rect x="414.551" y="141" width="75.988" height="4.04192" rx="2.02096" fill="#2B1F2D"/>
<rect x="414.551" y="75" width="75.988" height="4.04192" rx="2.02096" fill="#2B1F2D"/>
<rect x="466.288" y="80.8865" width="5.65868" height="5.65868" rx="2.82934" fill="#2B1F2D"/>
<rect x="478.124" y="30.2539" width="103.09" height="133" rx="19" transform="rotate(17.4512 478.124 30.2539)" fill="#EFADF9" stroke="#2B1F2D" stroke-width="2"/>
<rect x="488.753" y="51" width="73.0001" height="73" rx="5" transform="rotate(17.4512 488.753 51)" fill="#D6F270"/>
<rect x="463.429" y="128" width="73.0001" height="5.22815" rx="2.61407" transform="rotate(17.4512 463.429 128)" fill="#D6F270"/>
</svg>
