<svg width="845" height="470" viewBox="0 0 845 470" fill="none" xmlns="http://www.w3.org/2000/svg">
<g clip-path="url(#clip0_97_1177)">
<g filter="url(#filter0_dd_97_1177)">
<mask id="mask0_97_1177" style="mask-type:luminance" maskUnits="userSpaceOnUse" x="80" y="16" width="675" height="426">
<path d="M742.123 16.129H92.4453C85.6754 16.129 80.1873 21.6171 80.1873 28.3871V429.226C80.1873 435.996 85.6754 441.484 92.4453 441.484H742.123C748.893 441.484 754.381 435.996 754.381 429.226V28.3871C754.381 21.6171 748.893 16.129 742.123 16.129Z" fill="white"/>
</mask>
<g mask="url(#mask0_97_1177)">
<path d="M742.123 16.129H92.4453C85.6754 16.129 80.1873 21.6171 80.1873 28.3871V429.226C80.1873 435.996 85.6754 441.484 92.4453 441.484H742.123C748.893 441.484 754.381 435.996 754.381 429.226V28.3871C754.381 21.6171 748.893 16.129 742.123 16.129Z" fill="#EFADF9"/>
<path d="M93.0582 31.2639C91.6478 31.2639 90.5045 30.1206 90.5045 28.7102C90.5045 27.2997 91.6478 26.1564 93.0582 26.1564C94.4687 26.1564 95.612 27.2997 95.612 28.7102C95.612 30.1206 94.4687 31.2639 93.0582 31.2639Z" fill="#E11D48"/>
<path d="M102.252 31.2639C100.841 31.2639 99.6981 30.1206 99.6981 28.7102C99.6981 27.2997 100.841 26.1564 102.252 26.1564C103.662 26.1564 104.806 27.2997 104.806 28.7102C104.806 30.1206 103.662 31.2639 102.252 31.2639Z" fill="#2B1F2D"/>
<path d="M111.445 31.2639C110.035 31.2639 108.892 30.1206 108.892 28.7102C108.892 27.2997 110.035 26.1564 111.445 26.1564C112.856 26.1564 113.999 27.2997 113.999 28.7102C113.999 30.1206 112.856 31.2639 111.445 31.2639Z" fill="#D6F270"/>
<path d="M718.685 28.6936L721.719 31.7274C721.774 31.7839 721.823 31.8516 721.854 31.9264C721.885 32.0011 721.903 32.0816 721.903 32.163C721.903 32.2443 721.891 32.3251 721.86 32.4004C721.829 32.4757 721.78 32.5441 721.725 32.6017C721.67 32.6592 721.597 32.7047 721.523 32.7355C721.449 32.7664 721.37 32.7819 721.284 32.7811C721.204 32.7805 721.125 32.7635 721.051 32.7314C720.978 32.6993 720.91 32.6526 720.849 32.5941L717.386 29.1269C717.269 29.012 717.202 28.8561 717.202 28.6936C717.202 28.531 717.269 28.3751 717.386 28.2602L720.849 24.793C720.965 24.6814 721.118 24.6196 721.284 24.621C721.443 24.6224 721.597 24.6869 721.707 24.8005C721.823 24.9141 721.891 25.0679 721.891 25.2286C721.891 25.3893 721.829 25.5441 721.719 25.6597L718.685 28.6936Z" fill="#94A3B8"/>
<path d="M738.023 28.7371L734.989 25.7032C734.878 25.5876 734.817 25.4328 734.817 25.2721C734.823 25.1114 734.885 24.9577 735.001 24.844C735.111 24.7304 735.265 24.6659 735.424 24.6645C735.589 24.6631 735.743 24.7249 735.859 24.8366L739.328 28.3037C739.438 28.4187 739.506 28.5745 739.506 28.7371C739.506 28.8996 739.438 29.0555 739.328 29.1704L735.859 32.6376C735.743 32.7493 735.589 32.811 735.424 32.8096C735.265 32.8082 735.111 32.7437 735.001 32.6301C734.885 32.5165 734.823 32.3628 734.817 32.2021C734.817 32.0414 734.878 31.8865 734.989 31.7709L738.023 28.7371Z" fill="#475569"/>
<path d="M566.476 21.0323H269.277C267.585 21.0323 266.213 22.4043 266.213 24.0968V33.2903C266.213 34.9828 267.585 36.3548 269.277 36.3548H566.476C568.168 36.3548 569.54 34.9828 569.54 33.2903V24.0968C569.54 22.4043 568.168 21.0323 566.476 21.0323Z" fill="#F1F5F9"/>
<path d="M754.381 41.2581H80.1873V441.484H754.381V41.2581Z" fill="#2B1F2D"/>
<path d="M80.1873 41.7917H193.118V441.484H80.1873V41.7917Z" fill="#BFDBFE"/>
<path d="M93.7389 79.6797C93.7389 76.1433 96.7725 73.2761 100.515 73.2761H172.79C176.532 73.2761 179.566 76.1433 179.566 79.6797C179.566 83.2162 176.532 86.0833 172.79 86.0833H100.515C96.7725 86.0833 93.7389 83.2162 93.7389 79.6797Z" fill="#2B1F2D"/>
<path d="M120.842 124.505C120.842 122.737 122.359 121.303 124.23 121.303H180.695C182.566 121.303 184.083 122.737 184.083 124.505C184.083 126.273 182.566 127.707 180.695 127.707H124.23C122.359 127.707 120.842 126.273 120.842 124.505Z" fill="#EFADF9"/>
<path d="M120.842 158.658C120.842 156.89 122.359 155.456 124.23 155.456H163.191C165.062 155.456 166.579 156.89 166.579 158.658C166.579 160.426 165.062 161.86 163.191 161.86H124.23C122.359 161.86 120.842 160.426 120.842 158.658Z" fill="#EFADF9"/>
<path d="M120.842 192.81C120.842 191.042 122.359 189.608 124.23 189.608H172.79C174.661 189.608 176.178 191.042 176.178 192.81C176.178 194.578 174.661 196.012 172.79 196.012H124.23C122.359 196.012 120.842 194.578 120.842 192.81Z" fill="#EFADF9"/>
<path fill-rule="evenodd" clip-rule="evenodd" d="M102.773 131.442C106.827 131.442 110.114 128.336 110.114 124.505C110.114 120.674 106.827 117.568 102.773 117.568C98.7193 117.568 95.4329 120.674 95.4329 124.505C95.4329 128.336 98.7193 131.442 102.773 131.442ZM102.773 133.043C107.763 133.043 111.808 129.221 111.808 124.505C111.808 119.789 107.763 115.967 102.773 115.967C97.7838 115.967 93.7389 119.789 93.7389 124.505C93.7389 129.221 97.7838 133.043 102.773 133.043Z" fill="#2B1F2D"/>
<path d="M229.255 79.6797C229.255 77.3219 231.278 75.4109 233.772 75.4109H299.272C301.766 75.4109 303.789 77.3219 303.789 79.6797C303.789 82.0376 301.766 83.9486 299.272 83.9486H233.772C231.278 83.9486 229.255 82.0376 229.255 79.6797Z" fill="#BFDBFE"/>
<path d="M229.255 255.779C229.255 253.421 231.278 251.51 233.772 251.51H264.264C266.758 251.51 268.781 253.421 268.781 255.779C268.781 258.137 266.758 260.048 264.264 260.048H233.772C231.278 260.048 229.255 258.137 229.255 255.779Z" fill="#BFDBFE"/>
<path d="M277.816 255.779C277.816 253.421 279.837 251.51 282.333 251.51H333.151C335.646 251.51 337.668 253.421 337.668 255.779C337.668 258.137 335.646 260.048 333.151 260.048H282.333C279.837 260.048 277.816 258.137 277.816 255.779Z" fill="#BFDBFE"/>
<path d="M229.255 297.403C229.255 295.634 230.772 294.201 232.643 294.201H280.074C281.945 294.201 283.461 295.634 283.461 297.403C283.461 299.171 281.945 300.604 280.074 300.604H232.643C230.772 300.604 229.255 299.171 229.255 297.403Z" fill="#EFADF9"/>
<path d="M229.255 312.345C229.255 310.576 230.772 309.143 232.643 309.143H305.483C307.354 309.143 308.871 310.576 308.871 312.345C308.871 314.113 307.354 315.546 305.483 315.546H232.643C230.772 315.546 229.255 314.113 229.255 312.345Z" fill="#EFADF9"/>
<path d="M292.496 297.403C292.496 295.634 294.013 294.201 295.884 294.201H352.349C354.22 294.201 355.737 295.634 355.737 297.403C355.737 299.171 354.22 300.604 352.349 300.604H295.884C294.013 300.604 292.496 299.171 292.496 297.403Z" fill="#EFADF9"/>
<path d="M229.255 121.303C229.255 119.535 230.772 118.101 232.643 118.101H280.074C281.945 118.101 283.461 119.535 283.461 121.303C283.461 123.071 281.945 124.505 280.074 124.505H232.643C230.772 124.505 229.255 123.071 229.255 121.303Z" fill="#EFADF9"/>
<path d="M229.255 136.245C229.255 134.477 230.772 133.043 232.643 133.043H349.526C351.397 133.043 352.914 134.477 352.914 136.245C352.914 138.013 351.397 139.447 349.526 139.447H232.643C230.772 139.447 229.255 138.013 229.255 136.245Z" fill="#EFADF9"/>
<path d="M292.496 121.303C292.496 119.535 294.013 118.101 295.884 118.101H424.625C426.495 118.101 428.012 119.535 428.012 121.303C428.012 123.071 426.495 124.505 424.625 124.505H295.884C294.013 124.505 292.496 123.071 292.496 121.303Z" fill="#EFADF9"/>
<path fill-rule="evenodd" clip-rule="evenodd" d="M110.304 151.601H95.6231V165.475H110.304V151.601ZM93.9292 150V167.076H111.998V150H93.9292Z" fill="#2B1F2D"/>
<mask id="mask1_97_1177" style="mask-type:luminance" maskUnits="userSpaceOnUse" x="471" y="79" width="114" height="147">
<path d="M572.163 79.6797H483.748C476.978 79.6797 471.49 85.1678 471.49 91.9378V213.638C471.49 220.408 476.978 225.896 483.748 225.896H572.163C578.933 225.896 584.421 220.408 584.421 213.638V91.9378C584.421 85.1678 578.933 79.6797 572.163 79.6797Z" fill="white"/>
</mask>
<g mask="url(#mask1_97_1177)">
<path d="M572.163 79.6797H483.749C476.979 79.6797 471.49 85.1679 471.49 91.9378V213.638C471.49 220.408 476.979 225.896 483.749 225.896H572.163C578.933 225.896 584.421 220.408 584.421 213.638V91.9378C584.421 85.1679 578.933 79.6797 572.163 79.6797Z" fill="#EFADF9"/>
<path d="M546.716 226.022C546.716 263.021 515.242 293.015 476.416 293.015C437.59 293.015 406.115 263.021 406.115 226.022C406.115 189.022 437.59 159.029 476.416 159.029C515.242 159.029 546.716 189.022 546.716 226.022Z" fill="#2B1F2D"/>
<path fill-rule="evenodd" clip-rule="evenodd" d="M600.098 136.624L563.365 101.909L526.633 136.624L563.365 171.339L600.098 136.624ZM563.365 98.8906L523.438 136.624L563.365 174.358L603.292 136.624L563.365 98.8906Z" fill="#BFDBFE"/>
</g>
<path d="M103.338 185.339L112.372 200.128H94.3036L103.338 185.339Z" fill="#2B1F2D"/>
<path d="M703.162 79.6797H614.748C607.978 79.6797 602.49 85.1678 602.49 91.9378V175.216C602.49 181.986 607.978 187.474 614.748 187.474H703.162C709.932 187.474 715.42 181.986 715.42 175.216V91.9378C715.42 85.1678 709.932 79.6797 703.162 79.6797Z" fill="#EFADF9"/>
<path fill-rule="evenodd" clip-rule="evenodd" d="M653.29 160.054C664.549 160.054 673.599 151.508 673.599 141.055C673.599 130.602 664.549 122.056 653.29 122.056C642.031 122.056 632.981 130.602 632.981 141.055C632.981 151.508 642.031 160.054 653.29 160.054ZM653.29 165.391C667.625 165.391 679.246 154.495 679.246 141.055C679.246 127.615 667.625 116.719 653.29 116.719C638.955 116.719 627.334 127.615 627.334 141.055C627.334 154.495 638.955 165.391 653.29 165.391Z" fill="#BFDBFE"/>
<path d="M665.086 133.352L672.554 107.015L692.956 126.295L665.086 133.352Z" fill="#2B1F2D"/>
<mask id="mask2_97_1177" style="mask-type:luminance" maskUnits="userSpaceOnUse" x="471" y="242" width="114" height="165">
<path d="M572.163 242.972H483.748C476.978 242.972 471.49 248.46 471.49 255.23V394.006C471.49 400.776 476.978 406.264 483.748 406.264H572.163C578.933 406.264 584.421 400.776 584.421 394.006V255.23C584.421 248.46 578.933 242.972 572.163 242.972Z" fill="white"/>
</mask>
<g mask="url(#mask2_97_1177)">
<path d="M572.163 242.972H483.748C476.978 242.972 471.49 248.46 471.49 255.23V394.006C471.49 400.776 476.978 406.264 483.748 406.264H572.163C578.933 406.264 584.421 400.776 584.421 394.006V255.23C584.421 248.46 578.933 242.972 572.163 242.972Z" fill="#EFADF9"/>
<path fill-rule="evenodd" clip-rule="evenodd" d="M577.363 427.076C609.016 427.076 634.675 402.826 634.675 372.912C634.675 342.998 609.016 318.748 577.363 318.748C545.71 318.748 520.051 342.998 520.051 372.912C520.051 402.826 545.71 427.076 577.363 427.076ZM577.363 432.412C612.134 432.412 640.321 405.773 640.321 372.912C640.321 340.051 612.134 313.412 577.363 313.412C542.592 313.412 514.404 340.051 514.404 372.912C514.404 405.773 542.592 432.412 577.363 432.412Z" fill="#2B1F2D"/>
<path d="M530.779 291.654C530.779 301.741 522.057 309.918 511.299 309.918C500.54 309.918 491.818 301.741 491.818 291.654C491.818 281.566 500.54 273.389 511.299 273.389C522.057 273.389 530.779 281.566 530.779 291.654Z" fill="#BFDBFE"/>
<path fill-rule="evenodd" clip-rule="evenodd" d="M511.299 308.317C521.134 308.317 529.085 300.845 529.085 291.654C529.085 282.462 521.134 274.99 511.299 274.99C501.463 274.99 493.512 282.462 493.512 291.654C493.512 300.845 501.463 308.317 511.299 308.317ZM511.299 309.918C522.057 309.918 530.779 301.741 530.779 291.654C530.779 281.566 522.057 273.389 511.299 273.389C500.54 273.389 491.818 281.566 491.818 291.654C491.818 301.741 500.54 309.918 511.299 309.918Z" fill="#BFDBFE"/>
</g>
<mask id="mask3_97_1177" style="mask-type:luminance" maskUnits="userSpaceOnUse" x="602" y="204" width="114" height="184">
<path d="M703.162 204.55H614.748C607.978 204.55 602.49 210.038 602.49 216.808V374.795C602.49 381.565 607.978 387.053 614.748 387.053H703.162C709.932 387.053 715.42 381.565 715.42 374.795V216.808C715.42 210.038 709.932 204.55 703.162 204.55Z" fill="white"/>
</mask>
<g mask="url(#mask3_97_1177)">
<path d="M703.162 204.55H614.748C607.978 204.55 602.49 210.038 602.49 216.808V374.795C602.49 381.565 607.978 387.053 614.748 387.053H703.162C709.932 387.053 715.42 381.565 715.42 374.795V216.808C715.42 210.038 709.932 204.55 703.162 204.55Z" fill="#EFADF9"/>
<path d="M741.393 336.091C741.393 349.206 730.269 359.838 716.546 359.838C702.83 359.838 691.705 349.206 691.705 336.091C691.705 322.976 702.83 312.345 716.546 312.345C730.269 312.345 741.393 322.976 741.393 336.091Z" fill="#EFADF9"/>
<path fill-rule="evenodd" clip-rule="evenodd" d="M716.546 358.237C729.319 358.237 739.702 348.339 739.702 336.091C739.702 323.843 729.319 313.945 716.546 313.945C703.78 313.945 693.397 323.843 693.397 336.091C693.397 348.339 703.78 358.237 716.546 358.237ZM716.546 359.838C730.269 359.838 741.393 349.206 741.393 336.091C741.393 322.976 730.269 312.345 716.546 312.345C702.83 312.345 691.705 322.976 691.705 336.091C691.705 349.206 702.83 359.838 716.546 359.838Z" fill="#BFDBFE"/>
<path d="M696.222 268.853C696.222 286.389 681.304 300.604 662.907 300.604C644.508 300.604 629.593 286.389 629.593 268.853C629.593 251.317 644.508 237.102 662.907 237.102C681.304 237.102 696.222 251.317 696.222 268.853Z" fill="#BFDBFE"/>
<path d="M623.382 329.954L624.975 334.286L629.826 334.379L625.959 337.149L627.365 341.538L623.382 338.919L619.399 341.538L620.804 337.149L616.937 334.379L621.788 334.286L623.382 329.954Z" fill="#2B1F2D"/>
<path d="M646.533 329.954L648.125 334.286L652.977 334.379L649.11 337.149L650.515 341.538L646.533 338.919L642.55 341.538L643.955 337.149L640.089 334.379L644.94 334.286L646.533 329.954Z" fill="#2B1F2D"/>
<path d="M669.683 329.954L671.276 334.286L676.127 334.379L672.261 337.149L673.666 341.538L669.683 338.919L665.7 341.538L667.105 337.149L663.239 334.379L668.09 334.286L669.683 329.954Z" fill="#2B1F2D"/>
<path d="M692.833 329.954L694.427 334.286L699.281 334.379L695.413 337.149L696.817 341.538L692.833 338.919L688.849 341.538L690.259 337.149L686.391 334.379L691.24 334.286L692.833 329.954Z" fill="#2B1F2D"/>
<path d="M715.982 329.954L717.576 334.286L722.43 334.379L718.563 337.149L719.966 341.538L715.982 338.919L712.005 341.538L713.408 337.149L709.541 334.379L714.389 334.286L715.982 329.954Z" fill="#2B1F2D"/>
</g>
</g>
<path d="M742.123 17.6613H92.4453C86.5216 17.6613 81.7195 22.4634 81.7195 28.3871V429.226C81.7195 435.15 86.5216 439.952 92.4453 439.952H742.123C748.046 439.952 752.848 435.15 752.848 429.226V28.3871C752.848 22.4634 748.046 17.6613 742.123 17.6613Z" stroke="#EFADF9" stroke-width="5"/>
</g>
</g>
<ellipse cx="777.929" cy="194" rx="67" ry="67" fill="#72CFF6"/>
<path d="M52.6364 369.009C38.4588 367.224 23.4705 367.169 12.0198 371.639C-16.622 382.821 11.309 453.559 39.6775 442.484C51.046 438.046 61.9566 427.964 71.1337 417.135C69.3822 431.232 69.3558 446.102 73.7976 457.48C84.8726 485.848 155.824 458.464 144.643 429.822C140.197 418.434 130.087 407.504 119.236 398.317C133.345 400.074 148.233 400.105 159.622 395.659C187.99 384.584 160.606 313.632 131.964 324.813C120.679 329.219 109.845 339.186 100.709 349.926C102.434 335.894 102.437 321.118 98.0185 309.799C86.9435 281.431 15.9917 308.815 27.1733 337.457C31.6271 348.865 41.7638 359.812 52.6364 369.009Z" fill="#D6F270"/>
<path d="M108.918 82.8922C103.499 87.6673 97.1926 91.3283 90.3587 93.6662C83.5249 96.004 76.2974 96.973 69.0891 96.5176C61.8807 96.0623 54.8327 94.1917 48.3473 91.0125C41.8619 87.8333 36.0662 83.4079 31.2911 77.9889C26.516 72.5699 22.855 66.2634 20.5171 59.4295C18.1793 52.5956 17.2103 45.3682 17.6656 38.1599C18.121 30.9515 19.9916 23.9034 23.1708 17.4181C26.3499 10.9327 30.7754 5.13695 36.1944 0.361847L108.918 82.8922Z" fill="#FEF44B"/>
<defs>
<filter id="filter0_dd_97_1177" x="54.2195" y="5.16129" width="726.129" height="482.29" filterUnits="userSpaceOnUse" color-interpolation-filters="sRGB">
<feFlood flood-opacity="0" result="BackgroundImageFix"/>
<feColorMatrix in="SourceAlpha" type="matrix" values="0 0 0 0 0 0 0 0 0 0 0 0 0 0 0 0 0 0 127 0" result="hardAlpha"/>
<feOffset/>
<feGaussianBlur stdDeviation="5"/>
<feColorMatrix type="matrix" values="0 0 0 0 0 0 0 0 0 0 0 0 0 0 0 0 0 0 0.07 0"/>
<feBlend mode="normal" in2="BackgroundImageFix" result="effect1_dropShadow_97_1177"/>
<feColorMatrix in="SourceAlpha" type="matrix" values="0 0 0 0 0 0 0 0 0 0 0 0 0 0 0 0 0 0 127 0" result="hardAlpha"/>
<feOffset dy="20"/>
<feGaussianBlur stdDeviation="12.5"/>
<feColorMatrix type="matrix" values="0 0 0 0 0 0 0 0 0 0 0 0 0 0 0 0 0 0 0.1 0"/>
<feBlend mode="normal" in2="effect1_dropShadow_97_1177" result="effect2_dropShadow_97_1177"/>
<feBlend mode="normal" in="SourceGraphic" in2="effect2_dropShadow_97_1177" result="shape"/>
</filter>
<clipPath id="clip0_97_1177">
<rect width="698.71" height="456" fill="white" transform="translate(67.9292 10)"/>
</clipPath>
</defs>
</svg>
