<svg width="140" height="20" viewBox="0 0 140 20" fill="none" xmlns="http://www.w3.org/2000/svg">
<g id="Group 9">
<g id="sciencetifical.">
<path d="M27.123 15.0722C25.8277 15.0722 24.7914 14.8002 24.0142 14.2561C23.25 13.6991 22.7837 12.8507 22.6153 11.7109L23.8588 11.4388C23.9624 12.3844 24.2992 13.0839 24.8691 13.5372C25.452 13.9776 26.1903 14.1978 27.0841 14.1978C27.4727 14.1978 27.8483 14.1525 28.211 14.0618C28.5737 13.9712 28.891 13.8352 29.1631 13.6538C29.448 13.4725 29.6682 13.2458 29.8237 12.9738C29.9921 12.7018 30.0762 12.3844 30.0762 12.0217C30.0762 11.6072 29.9726 11.2769 29.7654 11.0308C29.5581 10.7847 29.2861 10.5904 28.9493 10.4479C28.6126 10.2925 28.224 10.1759 27.7836 10.0982C27.3561 10.0205 26.9157 9.94924 26.4623 9.88448C26.0219 9.81971 25.5815 9.74847 25.1411 9.67075C24.7137 9.58008 24.3316 9.45703 23.9948 9.30159C23.658 9.14615 23.386 8.93891 23.1788 8.67984C22.9715 8.42078 22.8679 8.084 22.8679 7.66951C22.8679 7.26796 22.9586 6.90528 23.1399 6.58145C23.3212 6.24467 23.5738 5.95971 23.8976 5.72655C24.2344 5.48044 24.636 5.29262 25.1023 5.16309C25.5686 5.03356 26.0802 4.9688 26.6372 4.9688C27.8289 4.9688 28.8004 5.189 29.5517 5.6294C30.3159 6.06981 30.8275 6.80165 31.0866 7.82494L29.8431 8.07753C29.6618 7.26149 29.3055 6.68508 28.7745 6.3483C28.2434 6.01152 27.5569 5.84313 26.7149 5.84313C25.9507 5.84313 25.3225 6.03095 24.8303 6.40659C24.3381 6.78222 24.0919 7.27444 24.0919 7.88323C24.0919 8.24592 24.1956 8.53088 24.4028 8.73813C24.6101 8.94538 24.8821 9.11377 25.2189 9.2433C25.5686 9.37283 25.9637 9.46998 26.4041 9.53475C26.8445 9.59951 27.2913 9.66428 27.7447 9.72904C28.1981 9.79381 28.6449 9.878 29.0853 9.98163C29.5257 10.0723 29.9143 10.2083 30.2511 10.3896C30.6008 10.571 30.8793 10.8106 31.0866 11.1085C31.2938 11.3935 31.3975 11.7691 31.3975 12.2355C31.3975 12.7277 31.2809 13.1551 31.0477 13.5178C30.8146 13.8675 30.4972 14.159 30.0957 14.3921C29.7071 14.6253 29.2537 14.7937 28.7356 14.8973C28.2175 15.0139 27.6799 15.0722 27.123 15.0722Z" fill="#EFADF9"/>
<path d="M36.6105 15.0722C35.9629 15.0722 35.3605 14.9621 34.8036 14.7419C34.2595 14.5087 33.7867 14.1784 33.3852 13.751C32.9966 13.3106 32.6857 12.7795 32.4526 12.1577C32.2324 11.523 32.1223 10.8106 32.1223 10.0205C32.1223 9.23035 32.2324 8.52441 32.4526 7.90266C32.6857 7.26796 32.9966 6.73689 33.3852 6.30944C33.7867 5.86903 34.2595 5.53873 34.8036 5.31853C35.3605 5.08538 35.9629 4.9688 36.6105 4.9688C37.569 4.9688 38.4045 5.20195 39.1169 5.66826C39.8423 6.13457 40.3734 6.80165 40.7101 7.66951L39.5249 8.11639C39.2659 7.41692 38.8773 6.8729 38.3592 6.4843C37.854 6.09571 37.2711 5.90142 36.6105 5.90142C36.1701 5.90142 35.7491 5.99857 35.3476 6.19286C34.959 6.3742 34.6222 6.64622 34.3372 7.0089C34.0523 7.35863 33.8256 7.78608 33.6572 8.29125C33.4888 8.79642 33.4046 9.37283 33.4046 10.0205C33.4046 10.6552 33.4888 11.2316 33.6572 11.7497C33.8256 12.2549 34.0523 12.6888 34.3372 13.0515C34.6222 13.4012 34.959 13.6732 35.3476 13.8675C35.7491 14.0489 36.1701 14.1396 36.6105 14.1396C37.3877 14.1396 38.0548 13.8805 38.6117 13.3624C39.1817 12.8313 39.5573 12.093 39.7387 11.1474L41.0016 11.4C40.7555 12.5787 40.2374 13.4854 39.4472 14.1201C38.67 14.7548 37.7245 15.0722 36.6105 15.0722Z" fill="#EFADF9"/>
<path d="M43.1619 4.17219C42.8769 4.17219 42.6438 4.10742 42.4624 3.97789C42.2941 3.83541 42.2099 3.63464 42.2099 3.37557C42.2099 3.12947 42.2941 2.94165 42.4624 2.81212C42.6438 2.66963 42.8769 2.59839 43.1619 2.59839C43.4469 2.59839 43.6736 2.66963 43.8419 2.81212C44.0103 2.94165 44.0945 3.12947 44.0945 3.37557C44.0945 3.63464 44.0103 3.83541 43.8419 3.97789C43.6736 4.10742 43.4469 4.17219 43.1619 4.17219ZM42.3264 14.8779C42.3394 14.6059 42.3523 14.3598 42.3653 14.1396C42.3783 13.9064 42.3912 13.6862 42.4042 13.4789C42.4171 13.2587 42.4236 13.0385 42.4236 12.8183C42.4365 12.5981 42.4495 12.352 42.4624 12.08C42.4624 11.6655 42.4624 11.2964 42.4624 10.9725C42.4754 10.6358 42.4819 10.3119 42.4819 10.0011C42.4819 9.67723 42.4754 9.34693 42.4624 9.01015C42.4624 8.67337 42.4624 8.30421 42.4624 7.90266C42.4495 7.63065 42.4365 7.38454 42.4236 7.16434C42.4236 6.94414 42.4171 6.73689 42.4042 6.54259C42.3912 6.33534 42.3783 6.12162 42.3653 5.90142C42.3523 5.68122 42.3394 5.43511 42.3264 5.16309H43.9391C43.9261 5.43511 43.9132 5.68122 43.9002 5.90142C43.8873 6.12162 43.8743 6.33534 43.8614 6.54259C43.8484 6.73689 43.8355 6.94414 43.8225 7.16434C43.8096 7.38454 43.8031 7.63065 43.8031 7.90266C43.7901 8.30421 43.7837 8.67337 43.7837 9.01015C43.7837 9.34693 43.7837 9.67723 43.7837 10.0011C43.7837 10.3119 43.7837 10.6358 43.7837 10.9725C43.7837 11.2964 43.7901 11.6655 43.8031 12.08C43.8031 12.352 43.8096 12.5981 43.8225 12.8183C43.8355 13.0385 43.8484 13.2587 43.8614 13.4789C43.8743 13.6862 43.8873 13.9064 43.9002 14.1396C43.9132 14.3598 43.9261 14.6059 43.9391 14.8779H42.3264Z" fill="#EFADF9"/>
<path d="M49.7217 15.0722C49.074 15.0722 48.4717 14.9621 47.9147 14.7419C47.3707 14.5087 46.8979 14.1784 46.4964 13.751C46.1078 13.3106 45.7969 12.7795 45.5637 12.1577C45.3435 11.523 45.2334 10.8106 45.2334 10.0205C45.2334 9.23035 45.3435 8.52441 45.5637 7.90266C45.7969 7.26796 46.1142 6.73689 46.5158 6.30944C46.9173 5.86903 47.3901 5.53873 47.9341 5.31853C48.4911 5.08538 49.0999 4.9688 49.7605 4.9688C50.2139 4.9688 50.6737 5.03356 51.14 5.16309C51.6193 5.29262 52.0597 5.51283 52.4612 5.8237C52.8757 6.12162 53.2255 6.51669 53.5104 7.0089C53.8083 7.48816 53.9962 8.084 54.0739 8.79642L46.5158 9.74847V10.0205C46.5158 10.6552 46.6 11.2316 46.7684 11.7497C46.9368 12.2549 47.1634 12.6888 47.4484 13.0515C47.7334 13.4012 48.0702 13.6732 48.4587 13.8675C48.8603 14.0489 49.2813 14.1396 49.7217 14.1396C50.4988 14.1396 51.1659 13.8805 51.7229 13.3624C52.2928 12.8313 52.6685 12.093 52.8498 11.1474L54.1127 11.4C53.8666 12.5787 53.3485 13.4854 52.5584 14.1201C51.7812 14.7548 50.8356 15.0722 49.7217 15.0722ZM52.7527 8.5827C52.6361 8.03867 52.4742 7.59827 52.2669 7.26149C52.0597 6.91175 51.8201 6.63974 51.548 6.44545C51.289 6.2382 51.0105 6.09571 50.7126 6.01799C50.4276 5.94028 50.1491 5.90142 49.8771 5.90142C49.4367 5.90142 49.0222 5.98561 48.6336 6.154C48.258 6.30944 47.9212 6.54259 47.6233 6.85347C47.3254 7.15139 47.0792 7.52055 46.8849 7.96095C46.7036 8.3884 46.587 8.88062 46.5352 9.4376L52.7527 8.5827Z" fill="#EFADF9"/>
<path d="M55.302 14.8779C55.315 14.6059 55.328 14.3598 55.3409 14.1396C55.3539 13.9064 55.3668 13.6862 55.3798 13.4789C55.3927 13.2587 55.3992 13.0385 55.3992 12.8183C55.4122 12.5981 55.4251 12.352 55.4381 12.08C55.4381 11.6655 55.4381 11.2964 55.4381 10.9725C55.451 10.6358 55.4575 10.3119 55.4575 10.0011C55.4575 9.67723 55.451 9.34693 55.4381 9.01015C55.4381 8.67337 55.4381 8.30421 55.4381 7.90266C55.4251 7.63065 55.4122 7.38454 55.3992 7.16434C55.3992 6.94414 55.3927 6.73689 55.3798 6.54259C55.3668 6.33534 55.3539 6.12162 55.3409 5.90142C55.328 5.68122 55.315 5.43511 55.302 5.16309H56.9147C56.9017 5.43511 56.8888 5.68122 56.8758 5.90142C56.8629 6.12162 56.8499 6.33534 56.837 6.54259C56.824 6.73689 56.8111 6.94414 56.7981 7.16434C56.7852 7.38454 56.7787 7.63065 56.7787 7.90266C56.7787 8.07105 56.7722 8.22649 56.7593 8.36897C56.7593 8.51146 56.7593 8.65394 56.7593 8.79642C57.0183 8.25239 57.3098 7.74723 57.6336 7.28092C57.9704 6.80165 58.3395 6.39363 58.7411 6.05685C59.1556 5.72007 59.6025 5.45454 60.0817 5.26024C60.561 5.06595 61.0791 4.9688 61.6361 4.9688C62.1413 4.9688 62.5687 5.05299 62.9184 5.22138C63.2811 5.37682 63.5661 5.59702 63.7733 5.88199C63.9935 6.154 64.149 6.47783 64.2397 6.85347C64.3303 7.21615 64.3757 7.61122 64.3757 8.03867C64.3757 8.45317 64.3692 8.82233 64.3562 9.14615C64.3562 9.45703 64.3562 9.7679 64.3562 10.0788C64.3562 10.3767 64.3562 10.6811 64.3562 10.992C64.3562 11.3028 64.3627 11.6655 64.3757 12.08C64.3757 12.352 64.3821 12.5981 64.3951 12.8183C64.408 13.0385 64.421 13.2587 64.4339 13.4789C64.4469 13.6862 64.4599 13.9064 64.4728 14.1396C64.4858 14.3598 64.4987 14.6059 64.5117 14.8779H62.899C62.912 14.6059 62.9249 14.3598 62.9379 14.1396C62.9508 13.9064 62.9638 13.6862 62.9767 13.4789C62.9897 13.2587 62.9962 13.0385 62.9962 12.8183C63.0091 12.5981 63.0221 12.352 63.035 12.08C63.035 11.6655 63.035 11.2964 63.035 10.9725C63.048 10.6487 63.0544 10.3314 63.0544 10.0205C63.0544 9.70961 63.048 9.39226 63.035 9.06844C63.035 8.73166 63.035 8.36249 63.035 7.96095C63.0221 7.27444 62.8213 6.73689 62.4327 6.3483C62.0571 5.95971 61.5519 5.76541 60.9172 5.76541C60.0623 5.76541 59.2851 6.08924 58.5856 6.73689C57.8862 7.37159 57.2774 8.22649 56.7593 9.30159C56.7463 9.75495 56.7398 10.1954 56.7398 10.6228C56.7528 11.0373 56.7657 11.523 56.7787 12.08C56.7787 12.352 56.7852 12.5981 56.7981 12.8183C56.8111 13.0385 56.824 13.2587 56.837 13.4789C56.8499 13.6862 56.8629 13.9064 56.8758 14.1396C56.8888 14.3598 56.9017 14.6059 56.9147 14.8779H55.302Z" fill="#EFADF9"/>
<path d="M70.1379 15.0722C69.4902 15.0722 68.8879 14.9621 68.3309 14.7419C67.7869 14.5087 67.3141 14.1784 66.9126 13.751C66.524 13.3106 66.2131 12.7795 65.98 12.1577C65.7598 11.523 65.6497 10.8106 65.6497 10.0205C65.6497 9.23035 65.7598 8.52441 65.98 7.90266C66.2131 7.26796 66.524 6.73689 66.9126 6.30944C67.3141 5.86903 67.7869 5.53873 68.3309 5.31853C68.8879 5.08538 69.4902 4.9688 70.1379 4.9688C71.0964 4.9688 71.9319 5.20195 72.6443 5.66826C73.3697 6.13457 73.9007 6.80165 74.2375 7.66951L73.0523 8.11639C72.7933 7.41692 72.4047 6.8729 71.8865 6.4843C71.3814 6.09571 70.7985 5.90142 70.1379 5.90142C69.6975 5.90142 69.2765 5.99857 68.875 6.19286C68.4864 6.3742 68.1496 6.64622 67.8646 7.0089C67.5797 7.35863 67.353 7.78608 67.1846 8.29125C67.0162 8.79642 66.932 9.37283 66.932 10.0205C66.932 10.6552 67.0162 11.2316 67.1846 11.7497C67.353 12.2549 67.5797 12.6888 67.8646 13.0515C68.1496 13.4012 68.4864 13.6732 68.875 13.8675C69.2765 14.0489 69.6975 14.1396 70.1379 14.1396C70.9151 14.1396 71.5822 13.8805 72.1391 13.3624C72.7091 12.8313 73.0847 12.093 73.266 11.1474L74.529 11.4C74.2829 12.5787 73.7647 13.4854 72.9746 14.1201C72.1974 14.7548 71.2519 15.0722 70.1379 15.0722Z" fill="#EFADF9"/>
<path d="M79.7009 15.0722C79.0532 15.0722 78.4509 14.9621 77.8939 14.7419C77.3499 14.5087 76.8771 14.1784 76.4756 13.751C76.087 13.3106 75.7761 12.7795 75.543 12.1577C75.3228 11.523 75.2126 10.8106 75.2126 10.0205C75.2126 9.23035 75.3228 8.52441 75.543 7.90266C75.7761 7.26796 76.0935 6.73689 76.495 6.30944C76.8965 5.86903 77.3693 5.53873 77.9134 5.31853C78.4703 5.08538 79.0791 4.9688 79.7397 4.9688C80.1931 4.9688 80.6529 5.03356 81.1192 5.16309C81.5985 5.29262 82.0389 5.51283 82.4404 5.8237C82.8549 6.12162 83.2047 6.51669 83.4896 7.0089C83.7876 7.48816 83.9754 8.084 84.0531 8.79642L76.495 9.74847V10.0205C76.495 10.6552 76.5792 11.2316 76.7476 11.7497C76.916 12.2549 77.1427 12.6888 77.4276 13.0515C77.7126 13.4012 78.0494 13.6732 78.438 13.8675C78.8395 14.0489 79.2605 14.1396 79.7009 14.1396C80.4781 14.1396 81.1451 13.8805 81.7021 13.3624C82.2721 12.8313 82.6477 12.093 82.829 11.1474L84.092 11.4C83.8459 12.5787 83.3277 13.4854 82.5376 14.1201C81.7604 14.7548 80.8148 15.0722 79.7009 15.0722ZM82.7319 8.5827C82.6153 8.03867 82.4534 7.59827 82.2462 7.26149C82.0389 6.91175 81.7993 6.63974 81.5273 6.44545C81.2682 6.2382 80.9897 6.09571 80.6918 6.01799C80.4068 5.94028 80.1283 5.90142 79.8563 5.90142C79.4159 5.90142 79.0014 5.98561 78.6128 6.154C78.2372 6.30944 77.9004 6.54259 77.6025 6.85347C77.3046 7.15139 77.0585 7.52055 76.8642 7.96095C76.6828 8.3884 76.5662 8.88062 76.5144 9.4376L82.7319 8.5827Z" fill="#EFADF9"/>
<path d="M91.7319 14.3533C91.5117 14.4439 91.2461 14.5476 90.9353 14.6641C90.6244 14.7807 90.2876 14.8714 89.9249 14.9362C89.5752 15.0139 89.219 15.0527 88.8563 15.0527C88.377 15.0527 87.9366 14.9685 87.5351 14.8002C87.1336 14.6318 86.8097 14.3662 86.5636 14.0035C86.3305 13.6279 86.2139 13.1422 86.2139 12.5463V6.69803H84.8732V4.69678H86.2139V1.39376H88.8174V4.69678H90.9547V6.69803H88.8174V11.672C88.8304 12.0217 88.9275 12.2743 89.1089 12.4298C89.2902 12.5852 89.5169 12.6629 89.7889 12.6629C90.0609 12.6629 90.3265 12.6176 90.5855 12.5269C90.8446 12.4362 91.0518 12.3585 91.2073 12.2937L91.7319 14.3533Z" fill="#EFADF9"/>
<path d="M93.0878 14.8779V4.69678H95.6914V14.8779H93.0878ZM93.0878 3.27843V0.694295H95.6914V3.27843H93.0878Z" fill="#EFADF9"/>
<path d="M98.6619 7.22263H97.3212V5.24081H98.6619V4.61907C98.6619 4.04913 98.7525 3.51806 98.9339 3.02584C99.1282 2.53363 99.4002 2.0997 99.7499 1.72406C100.113 1.33547 100.547 1.03755 101.052 0.830302C101.57 0.610101 102.153 0.5 102.8 0.5C103.293 0.5 103.752 0.551812 104.18 0.655436C104.62 0.75906 105.035 0.90802 105.423 1.10232C105.825 1.29661 106.207 1.51681 106.57 1.76292L105.54 3.70588C105.203 3.40796 104.808 3.16833 104.355 2.98698C103.901 2.80564 103.442 2.71497 102.975 2.71497C102.6 2.71497 102.282 2.79916 102.023 2.96755C101.764 3.13594 101.57 3.35614 101.44 3.62816C101.324 3.90017 101.265 4.19809 101.265 4.52192V5.24081H106.725V14.8779H104.122V7.22263H101.265V14.8779H98.6619V7.22263Z" fill="#EFADF9"/>
<path d="M113.824 15.0722C112.995 15.0722 112.25 14.9362 111.59 14.6641C110.929 14.3792 110.365 13.9906 109.899 13.4984C109.433 12.9932 109.07 12.4233 108.811 11.7886C108.565 11.1539 108.442 10.4868 108.442 9.78733C108.442 8.8288 108.656 7.95447 109.083 7.16434C109.523 6.36125 110.145 5.72008 110.948 5.24081C111.751 4.76155 112.703 4.52192 113.804 4.52192C114.905 4.52192 115.851 4.76155 116.641 5.24081C117.431 5.72008 118.021 6.3483 118.409 7.12548L115.864 7.90266C115.644 7.52702 115.352 7.24206 114.99 7.04776C114.627 6.84051 114.225 6.73689 113.785 6.73689C113.293 6.73689 112.839 6.86642 112.425 7.12548C112.023 7.37159 111.706 7.7278 111.473 8.19411C111.24 8.64746 111.123 9.17854 111.123 9.78733C111.123 10.3832 111.24 10.9142 111.473 11.3806C111.719 11.8339 112.043 12.1966 112.444 12.4686C112.846 12.7277 113.293 12.8572 113.785 12.8572C114.096 12.8572 114.387 12.8054 114.659 12.7018C114.944 12.5981 115.197 12.4557 115.417 12.2743C115.637 12.093 115.799 11.8857 115.903 11.6526L118.448 12.4298C118.215 12.9349 117.872 13.3883 117.418 13.7898C116.978 14.1914 116.453 14.5087 115.845 14.7419C115.249 14.9621 114.575 15.0722 113.824 15.0722Z" fill="#EFADF9"/>
<path d="M119.351 11.8663C119.351 11.2057 119.532 10.6293 119.895 10.1371C120.27 9.63189 120.788 9.2433 121.449 8.97129C122.11 8.69927 122.867 8.56327 123.722 8.56327C124.15 8.56327 124.584 8.59565 125.024 8.66042C125.465 8.72518 125.847 8.8288 126.17 8.97129V8.42726C126.17 7.77961 125.976 7.28092 125.588 6.93118C125.212 6.58145 124.648 6.40659 123.897 6.40659C123.34 6.40659 122.809 6.50373 122.304 6.69803C121.799 6.89232 121.268 7.17729 120.711 7.55293L119.875 5.84313C120.549 5.40273 121.235 5.07242 121.935 4.85222C122.647 4.63202 123.392 4.52192 124.169 4.52192C125.62 4.52192 126.747 4.8846 127.55 5.60997C128.366 6.33534 128.774 7.37159 128.774 8.7187V11.9634C128.774 12.2355 128.819 12.4298 128.91 12.5463C129.014 12.6629 129.176 12.7341 129.396 12.7601V14.8779C129.163 14.9167 128.949 14.9491 128.755 14.975C128.573 15.0009 128.418 15.0139 128.288 15.0139C127.77 15.0139 127.375 14.8973 127.103 14.6641C126.844 14.431 126.682 14.146 126.617 13.8092L126.559 13.2847C126.119 13.8546 125.568 14.295 124.908 14.6059C124.247 14.9167 123.573 15.0722 122.887 15.0722C122.213 15.0722 121.605 14.9362 121.061 14.6641C120.529 14.3792 120.108 13.9971 119.798 13.5178C119.5 13.0256 119.351 12.4751 119.351 11.8663ZM125.685 12.3909C125.827 12.2355 125.944 12.08 126.034 11.9246C126.125 11.7691 126.17 11.6267 126.17 11.4971V10.4674C125.86 10.3378 125.523 10.2407 125.16 10.1759C124.797 10.0982 124.454 10.0593 124.13 10.0593C123.457 10.0593 122.9 10.2083 122.459 10.5062C122.032 10.7912 121.818 11.1733 121.818 11.6526C121.818 11.9116 121.889 12.1577 122.032 12.3909C122.174 12.624 122.382 12.8119 122.654 12.9543C122.926 13.0968 123.25 13.1681 123.625 13.1681C124.014 13.1681 124.396 13.0968 124.772 12.9543C125.147 12.7989 125.452 12.6111 125.685 12.3909Z" fill="#EFADF9"/>
<path d="M131.188 0.694295H133.791V11.6137C133.791 12.08 133.869 12.3974 134.024 12.5658C134.18 12.7212 134.393 12.7989 134.665 12.7989C134.873 12.7989 135.086 12.773 135.307 12.7212C135.527 12.6694 135.721 12.6046 135.89 12.5269L136.239 14.5087C135.89 14.6771 135.481 14.8066 135.015 14.8973C134.549 14.988 134.128 15.0333 133.752 15.0333C132.936 15.0333 132.302 14.8196 131.848 14.3921C131.408 13.9517 131.188 13.33 131.188 12.5269V0.694295Z" fill="#EFADF9"/>
<path d="M137.315 14.8779V12.08H139.453V14.8779H137.315Z" fill="#EFADF9"/>
</g>
<g id="Vector">
<path d="M16.2057 10.9292C17.0603 11.1946 17.9139 11.4597 18.7685 11.7251C19.2034 11.8602 19.235 11.9167 19.102 12.3564C18.9859 12.738 18.8687 13.1192 18.745 13.4984C18.647 13.7982 18.528 13.8498 18.2296 13.7572C16.4953 13.2185 14.7593 12.689 13.027 12.1438C12.7844 12.0685 12.627 12.1356 12.4776 12.3118C12.3261 12.4909 12.3873 12.6643 12.4793 12.8388C13.0108 13.8475 13.5455 14.8536 14.0741 15.8638C14.3162 16.3267 14.2757 16.4302 13.8179 16.6578C13.5117 16.8104 13.2104 16.9705 12.9064 17.1274C12.5609 17.3061 12.4467 17.2766 12.2681 16.9411C11.7059 15.8846 11.1366 14.8318 10.5912 13.7674C10.0723 12.753 10.2188 11.7682 10.9229 10.9207C11.6077 10.0971 12.5504 9.85501 13.584 10.1305C14.4658 10.3661 15.3305 10.6646 16.2026 10.9354C16.2033 10.9332 16.2047 10.9325 16.2057 10.9292Z" fill="#EFADF9"/>
<path d="M8.72098 16.5407C8.45898 17.3843 8.20025 18.2289 7.93388 19.0712C7.78493 19.5431 7.74341 19.5649 7.25514 19.424C6.87212 19.3146 6.49445 19.1842 6.1138 19.0671C5.87337 18.9925 5.8091 18.8445 5.88374 18.608C6.41396 16.9239 6.94091 15.2387 7.46238 13.5519C7.50882 13.4024 7.54933 13.2295 7.52123 13.0808C7.45538 12.7372 7.13276 12.6263 6.77979 12.8098C5.99468 13.2157 5.21225 13.6285 4.42941 14.0387C4.15164 14.1846 3.87312 14.3291 3.5972 14.4767C3.3789 14.5932 3.21538 14.5448 3.10038 14.3248C2.89373 13.9292 2.68599 13.5332 2.47683 13.138C2.35586 12.9101 2.40542 12.7544 2.6431 12.6296C3.70152 12.0728 4.75124 11.4977 5.81193 10.9452C6.42228 10.6274 7.08392 10.511 7.74923 10.7069C9.08607 11.1017 9.99438 12.4404 9.51312 14.0093C9.2544 14.8539 8.98912 15.6965 8.72712 16.5402C8.72493 16.5395 8.72275 16.5388 8.72165 16.5385L8.72098 16.5407Z" fill="#EFADF9"/>
<path d="M10.6064 3.44398C10.8765 2.57417 11.1459 1.70292 11.4171 0.833448C11.5242 0.488577 11.6058 0.445716 11.9605 0.549885C12.3436 0.662879 12.7243 0.783512 13.1064 0.89978C13.4819 1.01401 13.5221 1.08152 13.4072 1.45149C12.8947 3.10163 12.379 4.75075 11.865 6.40164C11.8369 6.49223 11.7764 6.59069 11.7926 6.67351C11.8244 6.84133 11.8613 7.0311 11.9641 7.15518C12.0959 7.31338 12.3008 7.29803 12.4887 7.19843C13.177 6.83422 13.8679 6.4732 14.5576 6.11185C14.9528 5.90431 15.3495 5.69963 15.7421 5.48889C15.9403 5.38293 16.0904 5.42834 16.1943 5.62217C16.4271 6.05705 16.6553 6.49527 16.8889 6.93158C16.988 7.11792 16.9185 7.24115 16.7503 7.3277C15.5696 7.93866 14.4063 8.58614 13.2033 9.14947C11.9669 9.72757 10.4112 9.0805 9.89382 7.81413C9.64349 7.20031 9.62929 6.55929 9.83329 5.91783C10.095 5.09446 10.3469 4.26804 10.6031 3.44297L10.6064 3.44398Z" fill="#EFADF9"/>
<path d="M3.1256 9.06153C2.21745 8.77949 1.31039 8.49779 0.402245 8.21574C0.195698 8.1516 0.107311 8.02722 0.178979 7.80417C0.320207 7.36101 0.462866 6.91709 0.587701 6.46883C0.66038 6.2078 0.798999 6.13957 1.05186 6.22049C1.87711 6.48396 2.70431 6.73728 3.53159 6.9942C4.41351 7.2681 5.29027 7.55475 6.17788 7.80648C6.35409 7.85642 6.60392 7.82751 6.75866 7.73436C7.04279 7.56413 6.93625 7.28215 6.8163 7.05104C6.45236 6.35167 6.07089 5.6624 5.70156 4.96494C5.50596 4.59547 5.32434 4.21957 5.1316 3.84859C5.04223 3.67723 5.08716 3.55956 5.25181 3.47308C5.66307 3.25618 6.07475 3.0418 6.48299 2.81917C6.72236 2.68889 6.8953 2.73781 7.02237 2.9807C7.38774 3.67932 7.75742 4.37569 8.12532 5.0739C8.32435 5.45162 8.5259 5.82893 8.71743 6.2115C9.1979 7.16844 9.11724 8.09949 8.49165 8.94866C7.821 9.85803 6.8715 10.122 5.80516 9.85542C4.90362 9.62928 4.02406 9.31304 3.13449 9.03677C3.13212 9.04441 3.13008 9.05095 3.12771 9.05859L3.1256 9.06153Z" fill="#EFADF9"/>
</g>
</g>
</svg>
