<svg width="647" height="220" viewBox="0 0 647 220" fill="none" xmlns="http://www.w3.org/2000/svg">
<rect x="2.125" y="1.5" width="642.625" height="217" rx="18.5" stroke="#EFADF9" stroke-width="3"/>
<path d="M53.85 68.9V94H48.25V58.5H52.85L72.95 84.15V58.55H78.6V94L73.7 94L53.85 68.9ZM97.5906 94.5C95.5573 94.5 93.7073 94.15 92.0406 93.45C90.4073 92.7167 88.9906 91.7333 87.7906 90.5C86.5906 89.2333 85.6573 87.8 84.9906 86.2C84.3573 84.5667 84.0406 82.8333 84.0406 81C84.0406 78.5333 84.6073 76.2833 85.7406 74.25C86.874 72.1833 88.4573 70.5333 90.4906 69.3C92.524 68.0333 94.9073 67.4 97.6406 67.4C100.374 67.4 102.724 68.0333 104.691 69.3C106.691 70.5333 108.241 72.1667 109.341 74.2C110.441 76.2333 110.991 78.4167 110.991 80.75C110.991 81.15 110.974 81.5333 110.941 81.9C110.907 82.2333 110.874 82.5167 110.841 82.75L89.8906 82.75C89.9906 84.2833 90.4073 85.6333 91.1406 86.8C91.9073 87.9333 92.874 88.8333 94.0406 89.5C95.2073 90.1333 96.4573 90.45 97.7906 90.45C99.2573 90.45 100.641 90.0833 101.941 89.35C103.274 88.6167 104.174 87.65 104.641 86.45L109.341 87.8C108.774 89.0667 107.907 90.2167 106.741 91.25C105.607 92.25 104.257 93.05 102.691 93.65C101.124 94.2167 99.424 94.5 97.5906 94.5ZM89.7406 79.1L105.541 79.1C105.441 77.6 105.007 76.2833 104.241 75.15C103.507 73.9833 102.557 73.0833 101.391 72.45C100.257 71.7833 98.9906 71.45 97.5906 71.45C96.224 71.45 94.9573 71.7833 93.7906 72.45C92.6573 73.0833 91.724 73.9833 90.9906 75.15C90.2573 76.2833 89.8406 77.6 89.7406 79.1ZM147.645 67.85H152.895L141.895 94H137.195L132.495 82.2L127.795 94H123.095L112.045 67.85H117.295L125.695 88.65L129.395 79L124.895 67.9H129.545L132.495 76.05L135.395 67.9H140.045L135.595 79L139.295 88.65L147.645 67.85ZM59.4 159.5C57.3667 159.5 55.5167 159.15 53.85 158.45C52.2167 157.717 50.8 156.733 49.6 155.5C48.4 154.233 47.4667 152.8 46.8 151.2C46.1667 149.567 45.85 147.833 45.85 146C45.85 143.533 46.4167 141.283 47.55 139.25C48.6833 137.183 50.2667 135.533 52.3 134.3C54.3333 133.033 56.7167 132.4 59.45 132.4C62.1833 132.4 64.5333 133.033 66.5 134.3C68.5 135.533 70.05 137.167 71.15 139.2C72.25 141.233 72.8 143.417 72.8 145.75C72.8 146.15 72.7833 146.533 72.75 146.9C72.7167 147.233 72.6833 147.517 72.65 147.75H51.7C51.8 149.283 52.2167 150.633 52.95 151.8C53.7167 152.933 54.6833 153.833 55.85 154.5C57.0167 155.133 58.2667 155.45 59.6 155.45C61.0667 155.45 62.45 155.083 63.75 154.35C65.0833 153.617 65.9833 152.65 66.45 151.45L71.15 152.8C70.5833 154.067 69.7167 155.217 68.55 156.25C67.4167 157.25 66.0667 158.05 64.5 158.65C62.9333 159.217 61.2333 159.5 59.4 159.5ZM51.55 144.1H67.35C67.25 142.6 66.8167 141.283 66.05 140.15C65.3167 138.983 64.3667 138.083 63.2 137.45C62.0667 136.783 60.8 136.45 59.4 136.45C58.0333 136.45 56.7667 136.783 55.6 137.45C54.4667 138.083 53.5333 138.983 52.8 140.15C52.0667 141.283 51.65 142.6 51.55 144.1ZM79.7098 132.85L85.9098 141.8L86.3598 142.65L86.8098 141.8L92.9598 132.85H98.9098L89.5098 145.95L99.0098 159H93.0598L86.8098 150.1L86.3598 149.3L85.9098 150.1L79.6598 159H73.7098L83.2098 146L73.8098 132.85H79.7098ZM117.883 159.5C115.783 159.5 113.933 159 112.333 158C110.733 157 109.466 155.7 108.533 154.1V169.65L103.033 169.65V132.85L107.883 132.85V137.55C108.883 135.983 110.183 134.733 111.783 133.8C113.383 132.867 115.166 132.4 117.133 132.4C118.933 132.4 120.583 132.767 122.083 133.5C123.583 134.2 124.883 135.183 125.983 136.45C127.083 137.717 127.933 139.167 128.533 140.8C129.166 142.4 129.483 144.1 129.483 145.9C129.483 148.4 128.983 150.683 127.983 152.75C127.016 154.817 125.649 156.467 123.883 157.7C122.149 158.9 120.149 159.5 117.883 159.5ZM116.083 154.8C117.249 154.8 118.299 154.55 119.233 154.05C120.199 153.55 121.016 152.883 121.683 152.05C122.383 151.217 122.916 150.267 123.283 149.2C123.649 148.133 123.833 147.033 123.833 145.9C123.833 144.7 123.633 143.567 123.233 142.5C122.833 141.433 122.249 140.5 121.483 139.7C120.749 138.9 119.883 138.267 118.883 137.8C117.916 137.333 116.849 137.1 115.683 137.1C114.983 137.1 114.249 137.233 113.483 137.5C112.716 137.767 111.999 138.133 111.333 138.6C110.666 139.067 110.083 139.617 109.583 140.25C109.083 140.883 108.733 141.55 108.533 142.25V149.1C108.999 150.167 109.616 151.133 110.383 152C111.149 152.833 112.033 153.517 113.033 154.05C114.033 154.55 115.049 154.8 116.083 154.8ZM146.579 159.5C144.546 159.5 142.696 159.15 141.029 158.45C139.396 157.717 137.979 156.733 136.779 155.5C135.579 154.233 134.646 152.8 133.979 151.2C133.346 149.567 133.029 147.833 133.029 146C133.029 143.533 133.596 141.283 134.729 139.25C135.863 137.183 137.446 135.533 139.479 134.3C141.513 133.033 143.896 132.4 146.629 132.4C149.363 132.4 151.713 133.033 153.679 134.3C155.679 135.533 157.229 137.167 158.329 139.2C159.429 141.233 159.979 143.417 159.979 145.75C159.979 146.15 159.963 146.533 159.929 146.9C159.896 147.233 159.863 147.517 159.829 147.75L138.879 147.75C138.979 149.283 139.396 150.633 140.129 151.8C140.896 152.933 141.863 153.833 143.029 154.5C144.196 155.133 145.446 155.45 146.779 155.45C148.246 155.45 149.629 155.083 150.929 154.35C152.263 153.617 153.163 152.65 153.629 151.45L158.329 152.8C157.763 154.067 156.896 155.217 155.729 156.25C154.596 157.25 153.246 158.05 151.679 158.65C150.113 159.217 148.413 159.5 146.579 159.5ZM138.729 144.1L154.529 144.1C154.429 142.6 153.996 141.283 153.229 140.15C152.496 138.983 151.546 138.083 150.379 137.45C149.246 136.783 147.979 136.45 146.579 136.45C145.213 136.45 143.946 136.783 142.779 137.45C141.646 138.083 140.713 138.983 139.979 140.15C139.246 141.283 138.829 142.6 138.729 144.1ZM179.466 137.6C177.332 137.633 175.432 138.117 173.766 139.05C172.132 139.983 170.966 141.3 170.266 143V159H164.766V132.85H169.866V138.7C170.766 136.9 171.949 135.467 173.416 134.4C174.882 133.3 176.432 132.7 178.066 132.6C178.399 132.6 178.666 132.6 178.866 132.6C179.099 132.6 179.299 132.617 179.466 132.65V137.6ZM183.767 159V132.85H189.267V159H183.767ZM183.767 128.55V122.5H189.267V128.55H183.767ZM236.176 159H230.676V144.35C230.676 141.917 230.276 140.133 229.476 139C228.676 137.867 227.51 137.3 225.976 137.3C224.443 137.3 223.01 137.883 221.676 139.05C220.376 140.183 219.46 141.667 218.926 143.5V159H213.426V144.35C213.426 141.917 213.026 140.133 212.226 139C211.426 137.867 210.276 137.3 208.776 137.3C207.243 137.3 205.81 137.867 204.476 139C203.176 140.133 202.243 141.617 201.676 143.45V159H196.176V132.85H201.176V138.1C202.21 136.267 203.56 134.867 205.226 133.9C206.926 132.9 208.86 132.4 211.026 132.4C213.193 132.4 214.893 132.967 216.126 134.1C217.393 135.233 218.176 136.65 218.476 138.35C219.61 136.417 220.993 134.95 222.626 133.95C224.293 132.917 226.193 132.4 228.326 132.4C229.86 132.4 231.143 132.683 232.176 133.25C233.21 133.817 234.01 134.6 234.576 135.6C235.143 136.567 235.543 137.7 235.776 139C236.043 140.267 236.176 141.617 236.176 143.05V159ZM254.664 159.5C252.631 159.5 250.781 159.15 249.114 158.45C247.481 157.717 246.064 156.733 244.864 155.5C243.664 154.233 242.731 152.8 242.064 151.2C241.431 149.567 241.114 147.833 241.114 146C241.114 143.533 241.681 141.283 242.814 139.25C243.947 137.183 245.531 135.533 247.564 134.3C249.597 133.033 251.981 132.4 254.714 132.4C257.447 132.4 259.797 133.033 261.764 134.3C263.764 135.533 265.314 137.167 266.414 139.2C267.514 141.233 268.064 143.417 268.064 145.75C268.064 146.15 268.047 146.533 268.014 146.9C267.981 147.233 267.947 147.517 267.914 147.75H246.964C247.064 149.283 247.481 150.633 248.214 151.8C248.981 152.933 249.947 153.833 251.114 154.5C252.281 155.133 253.531 155.45 254.864 155.45C256.331 155.45 257.714 155.083 259.014 154.35C260.347 153.617 261.247 152.65 261.714 151.45L266.414 152.8C265.847 154.067 264.981 155.217 263.814 156.25C262.681 157.25 261.331 158.05 259.764 158.65C258.197 159.217 256.497 159.5 254.664 159.5ZM246.814 144.1H262.614C262.514 142.6 262.081 141.283 261.314 140.15C260.581 138.983 259.631 138.083 258.464 137.45C257.331 136.783 256.064 136.45 254.664 136.45C253.297 136.45 252.031 136.783 250.864 137.45C249.731 138.083 248.797 138.983 248.064 140.15C247.331 141.283 246.914 142.6 246.814 144.1ZM296.3 159H290.8V144.35C290.8 141.917 290.4 140.133 289.6 139C288.834 137.867 287.684 137.3 286.15 137.3C285.084 137.3 284.017 137.567 282.95 138.1C281.917 138.633 280.984 139.367 280.15 140.3C279.317 141.2 278.717 142.25 278.35 143.45V159L272.85 159V132.85L277.85 132.85V138.1C278.517 136.933 279.384 135.933 280.45 135.1C281.55 134.233 282.784 133.567 284.15 133.1C285.517 132.633 286.967 132.4 288.5 132.4C290.067 132.4 291.35 132.683 292.35 133.25C293.384 133.817 294.184 134.6 294.75 135.6C295.35 136.567 295.75 137.7 295.95 139C296.184 140.267 296.3 141.617 296.3 143.05V159ZM317.339 157.65C316.872 157.883 316.289 158.133 315.589 158.4C314.889 158.667 314.089 158.9 313.189 159.1C312.322 159.3 311.422 159.4 310.489 159.4C309.356 159.4 308.306 159.2 307.339 158.8C306.372 158.4 305.589 157.767 304.989 156.9C304.422 156 304.139 154.85 304.139 153.45V137.1H300.689V132.85H304.139V124.25H309.639V132.85L315.339 132.85V137.1L309.639 137.1V151.7C309.706 152.6 309.989 153.267 310.489 153.7C311.022 154.133 311.672 154.35 312.439 154.35C313.206 154.35 313.939 154.217 314.639 153.95C315.339 153.683 315.856 153.467 316.189 153.3L317.339 157.65Z" fill="#EFADF9"/>
<rect x="424.25" y="28" width="128" height="165" rx="19" stroke="#EFADF9" stroke-width="2"/>
<rect x="441.25" y="57" width="19" height="19" rx="5" fill="#EFADF9"/>
<rect x="441.25" y="101" width="19" height="19" rx="5" fill="#EFADF9"/>
<rect x="441.25" y="129" width="19" height="19" rx="5" fill="#EFADF9"/>
<rect x="441.25" y="158" width="94" height="5" rx="2.5" fill="#EFADF9"/>
<rect x="445.25" y="157" width="7" height="7" rx="3.5" fill="#D6F270"/>
<rect x="441.25" y="86" width="94" height="5" rx="2.5" fill="#EFADF9"/>
<rect x="505.25" y="85" width="7" height="7" rx="3.5" fill="#D6F270"/>
</svg>
