<svg width="142" height="138" viewBox="0 0 142 138" fill="none" xmlns="http://www.w3.org/2000/svg">
<path d="M97.3868 89.6292C112.612 73.7656 107.975 44.6026 87.0771 24.529C66.1788 4.45547 36.8833 0.947147 21.6707 16.8881L21.3075 17.2766C37.2558 5.5717 63.5021 10.0428 82.6896 28.4631C103.394 48.3392 108.079 77.1347 93.4447 93.088C94.8552 92.0502 96.1739 90.893 97.3862 89.6292H97.3868Z" fill="white"/>
<path d="M26.8648 88.2618C2.94942 65.3166 -1.83168 31.5024 16.1573 12.7567C14.5791 13.9496 13.0981 15.2659 11.7283 16.6932C-6.27308 35.4402 -1.47775 69.2519 22.437 92.2107C46.3524 115.168 80.3262 118.555 98.3276 99.8084C79.5843 113.981 48.94 109.443 26.8648 88.2618Z" fill="white"/>
<path d="M121.567 116.148C122.409 115.213 123.871 113.222 123.855 111.574L105.765 92.3195C120.108 73.0838 114.518 41.9283 92.0465 20.3555C68.1323 -2.60203 34.161 -6.00516 16.1584 12.7542C-1.83056 31.5011 2.95053 65.3153 26.8659 88.2593C48.7079 109.216 78.9394 113.879 97.7309 100.248C103.211 106.459 108.76 112.609 114.377 118.697C116.572 119.73 119.949 117.958 121.568 116.145V116.148L121.567 116.148ZM97.3863 89.6292C82.1749 105.479 52.8919 102.065 31.9799 81.9907C11.0679 61.9165 6.45701 32.8327 21.6703 16.8881C36.8829 0.945903 66.1783 4.45361 87.0767 24.529C107.975 44.6044 112.613 73.7662 97.3863 89.6292Z" fill="white"/>
<path d="M113.396 117.942C115.402 120.321 119.677 118.257 121.566 116.148C122.76 114.817 125.207 111.365 122.895 109.785C123.889 109.801 124.165 109.811 124.808 110.569C125.02 110.771 124.801 110.628 140.605 127.403C141.587 128.599 141.123 130.552 140.485 131.854C139.861 133.114 138.951 134.211 137.827 135.056C135.768 136.62 133.124 137.899 130.613 137.168C125.792 132.104 120.978 127.033 116.171 121.955C115.534 121.252 111.893 118.117 112.624 117.278C112.854 116.948 113.042 117.617 113.394 117.942H113.395H113.396Z" fill="#2B1F2D"/>
<path d="M113.73 59.6085C109.505 29.815 81.8876 3.29713 51.9455 0.298652C34.4986 -1.44809 22.5282 4.54391 11.2855 16.2643C2.44596 25.4707 -1.29564 38.5023 0.75491 52.957C5.27551 84.8295 36.374 112.506 67.9749 112.505C82.7272 112.505 92.9818 106.941 103.201 96.3012C112.042 87.0948 115.781 74.0632 113.732 59.6085H113.73ZM22.8666 91.7639C11.3987 80.7556 3.97985 66.9129 1.97695 52.7849C0.0872798 39.4595 3.23611 27.3957 10.8536 18.5735C5.5688 27.0393 3.5659 37.5834 5.18641 49.0229C7.22706 63.4238 14.774 77.5171 26.4381 88.7078C47.8611 109.261 74.6086 112.598 91.9485 104.378C73.342 116.954 44.0645 112.116 22.866 91.7645H22.8673L22.8666 91.7639ZM102.309 95.4461C84.576 113.91 50.9246 110.489 27.2932 87.815C15.8277 76.8142 8.41135 62.9752 6.40969 48.8472C2.28447 19.7361 22.5684 -1.40168 51.8236 1.52626C81.2014 4.46904 108.363 30.547 112.508 59.7806C114.504 73.8528 110.883 86.5175 102.309 95.4461Z" fill="#2B1F2D"/>
<path d="M87.5041 24.0836C75.3957 12.4529 60.2295 5.9597 45.8788 6.27341C35.902 6.49059 27.3763 10.0138 21.2228 16.4624C5.82945 32.5951 10.4639 62.1901 31.5522 82.4344C41.7622 92.2354 54.2616 98.436 66.7487 99.8937C78.3088 101.246 89.7718 98.4533 97.8311 90.0556C113.266 73.9748 108.632 44.3799 87.5041 24.0836ZM93.0197 92.6376C86.0934 97.7194 77.007 99.8492 66.8923 98.6692C54.6713 97.2424 42.4249 91.16 32.4079 81.5453C11.9873 61.9413 7.27423 33.4552 21.7351 17.724C27.1467 13.764 33.8806 11.6101 41.4993 11.4406C56.6482 11.1319 71.3312 18.4152 82.262 28.9074C102.668 48.4977 107.403 76.9127 93.0197 92.6376ZM97.7339 88.3416C107.674 71.6143 101.957 46.105 83.1172 28.0182C63.9717 9.63757 41.0142 6.87174 26.6096 13.4485C31.9408 9.70439 38.507 7.66746 45.9073 7.5072C60.9695 7.16874 75.7107 14.4644 86.6502 24.9727C106.916 44.4393 111.733 72.5709 97.7339 88.3416Z" fill="#2B1F2D"/>
<path d="M141.054 126.978C141.054 126.978 125.809 110.671 125.279 110.169C124.112 108.798 122.679 109.179 122.554 109.263L106.125 91.8283C105.884 92.1631 105.638 92.4935 105.384 92.8196L123.229 111.782C123.128 113.142 121.891 114.866 121.106 115.739C119.689 117.325 116.67 118.984 114.742 118.187C98.6586 100.756 98.6982 100.107 98.1549 99.9371C97.8905 100.135 97.6234 100.33 97.3537 100.521C97.3527 100.673 97.4075 100.819 97.5077 100.933C102.295 106.356 107.136 111.732 112.028 117.06C111.235 118.488 114.687 121.261 115.725 122.381C130.193 137.994 130.209 137.693 130.44 137.76C133.153 138.55 135.952 137.283 138.196 135.549C140.965 133.481 142.932 129.259 141.052 126.978H141.054V126.978ZM139.932 131.581C139.353 132.758 138.502 133.781 137.451 134.566C135.794 135.847 133.334 137.224 130.941 136.616C125.458 130.884 119.978 125.15 114.501 119.412C116.952 120.238 120.328 118.461 122.026 116.561C122.476 116.06 124.714 113.446 124.449 111.224C124.413 110.912 122.677 109.273 140.128 127.793C140.896 128.726 140.502 130.416 139.932 131.581Z" fill="#2B1F2D"/>
<path d="M132.302 134.011C131.891 134.011 132.158 134.137 120.736 122.168C120.628 122.048 120.571 121.892 120.576 121.731C120.582 121.57 120.651 121.418 120.767 121.307C120.883 121.196 121.038 121.134 121.199 121.136C121.36 121.137 121.514 121.201 121.628 121.314L132.749 132.966C132.832 133.054 132.888 133.164 132.909 133.283C132.931 133.402 132.917 133.524 132.87 133.635C132.822 133.747 132.743 133.841 132.642 133.908C132.541 133.975 132.423 134.01 132.302 134.011Z" fill="#2B1F2D"/>
<path d="M115.969 115.484C115.548 115.484 115.822 115.621 102.937 101.657C102.826 101.536 102.767 101.377 102.774 101.213C102.78 101.049 102.852 100.895 102.972 100.784C103.092 100.673 103.252 100.614 103.415 100.62C103.579 100.627 103.733 100.698 103.845 100.818L116.422 114.447C116.503 114.536 116.557 114.646 116.577 114.764C116.597 114.882 116.582 115.004 116.534 115.114C116.486 115.224 116.407 115.317 116.307 115.383C116.206 115.449 116.089 115.484 115.969 115.484Z" fill="#2B1F2D"/>
<path d="M22.5876 58.1347C22.4815 58.1346 22.3773 58.1073 22.2848 58.0554C22.1923 58.0035 22.1146 57.9288 22.0592 57.8383C15.4936 47.0423 16.3264 33.113 24.1345 23.1758C24.1844 23.1115 24.2466 23.0578 24.3175 23.0176C24.3883 22.9774 24.4664 22.9517 24.5472 22.9418C24.628 22.9319 24.71 22.9382 24.7884 22.9601C24.8669 22.982 24.9402 23.0193 25.0041 23.0697C25.0681 23.12 25.1215 23.1826 25.1612 23.2537C25.2009 23.3248 25.2261 23.403 25.2355 23.4839C25.2448 23.5648 25.2381 23.6467 25.2156 23.725C25.1932 23.8033 25.1555 23.8763 25.1047 23.94C17.6128 33.4731 16.8134 46.8382 23.1135 57.1948C23.1703 57.2883 23.2012 57.3952 23.2031 57.5046C23.205 57.614 23.1778 57.7219 23.1243 57.8173C23.0708 57.9128 22.9929 57.9923 22.8986 58.0477C22.8043 58.1031 22.697 58.1325 22.5876 58.1329V58.1347Z" fill="#2B1F2D"/>
<path d="M91.5504 85.7446C91.433 85.7446 91.3181 85.7113 91.219 85.6484C91.12 85.5855 91.0409 85.4957 90.991 85.3895C90.9412 85.2832 90.9226 85.165 90.9375 85.0486C90.9524 84.9323 91.0001 84.8225 91.0751 84.7323C93.24 82.1295 94.8042 79.0813 95.6563 75.8049C96.5085 72.5285 96.6277 69.1045 96.0054 65.7768C95.9855 65.6203 96.0262 65.4621 96.1192 65.3346C96.2122 65.2072 96.3504 65.1201 96.5055 65.0912C96.6606 65.0623 96.8209 65.0939 96.9535 65.1794C97.0861 65.2648 97.181 65.3978 97.2188 65.551C97.8749 69.0568 97.7496 72.6643 96.8517 76.1162C95.9539 79.5681 94.3056 82.7794 92.0243 85.5212C91.9666 85.5909 91.8941 85.6469 91.8122 85.6853C91.7303 85.7237 91.6408 85.7435 91.5504 85.7433V85.7446Z" fill="#2B1F2D"/>
</svg>
