<svg width="138" height="138" viewBox="0 0 138 138" fill="none" xmlns="http://www.w3.org/2000/svg">
<path d="M14.7239 56.4196C17.0565 63.588 30.0285 106.711 32.1426 112.996C38.0031 130.415 35.9111 136.515 61.075 131.764C65.5742 130.915 80.306 128.526 89.1656 125.595C92.1347 124.613 92.1485 124.86 94.8212 122.6C97.9362 119.967 96.7863 113.839 95.6954 110.267C94.696 106.992 67.6759 24.5247 64.1814 12.9817C62.5088 7.45684 59.3283 5.88985 54.8705 5.19743C48.6747 4.23385 26.3842 6.24347 20.2015 7.29469C-5.81945 11.7279 3.93612 23.2558 14.7229 56.4196H14.7239Z" fill="white"/>
<path d="M24.711 54.5359C24.9449 55.5077 34.55 85.7159 44.9759 120.288C45.649 122.008 46.7378 124.331 47.8046 125.945C49.5762 128.624 51.868 128.062 63.5552 125.622C65.137 125.293 78.2046 121.561 79.6256 121.3C81.7667 120.908 86.2593 119.672 90.234 118.134C91.042 117.821 91.5464 116.721 91.3939 115.963C88.5508 101.789 85.2277 95.9462 84.1603 92.6111C83.0218 89.0617 81.8091 85.5362 80.4347 82.0551C76.2726 71.5199 70.6736 51.2905 64.9349 32.873C59.3269 14.8691 58.0908 10.0768 54.3399 9.65413C52.7357 9.47232 49.3278 9.5872 49.1642 9.57651C46.8413 9.42505 47.9046 10.8816 46.5812 12.2175C45.7539 13.0517 45.7815 13.5136 42.6258 13.8769C42.5426 13.8866 30.8075 15.1859 30.7295 15.1717C28.6688 14.7864 26.4788 14.7615 25.2647 12.9934C24.5364 11.937 24.6837 11.9643 19.084 12.855C18.0235 13.0231 17.0123 13.3705 15.9387 13.4888C8.75853 14.2878 23.2482 48.4897 24.7106 54.5355V54.5362L24.711 54.5359Z" fill="white"/>
<path d="M5.46067 16.2367C6.37733 14.6991 8.39282 12.3727 9.68726 12.1347C9.4223 14.9909 7.40578 15.3649 11.0776 27.6072C12.5414 32.4873 11.5196 27.511 38.0718 115.702C40.3995 123.434 40.5855 122.156 41.2793 124.187C42.2056 126.898 44.0034 129.892 46.7247 131.667C44.3991 132.151 39.2417 130.53 38.0221 126.787C26.4777 91.3501 25.0022 85.9219 25.0022 85.9219C6.47842 25.3433 2.73206 20.809 5.46067 16.236V16.2367Z" fill="#02518C"/>
<path d="M14.7245 56.4196C17.0564 63.5894 30.0284 106.71 32.1433 112.996C38.0045 130.414 35.9117 136.513 61.0757 131.764C65.5748 130.914 80.3073 128.525 89.1663 125.595C95.6512 123.45 99.1299 120.18 96.0393 110.06C95.5156 108.344 65.482 13.7769 63.4393 10.487C58.3557 2.29805 51.0986 4.55676 31.4691 5.87432C-8.9328 8.58602 3.32954 21.3859 14.7249 56.4192L14.7245 56.4196ZM40.9601 119.983C41.1426 120.083 15.3148 37.9462 12.4475 29.0832C10.8892 24.2666 8.07639 14.1985 12.5949 10.5356C15.3135 8.33175 40.3832 6.53051 42.9649 6.40458C55.36 5.79945 61.2564 4.03892 65.5224 21.0943C65.9988 22.9974 91.199 96.8988 94.6028 111.261C96.4516 119.064 94.5759 121.832 90.7726 123.545C84.8769 126.199 73.0047 128.436 57.9089 131.029C49.66 132.446 46.0312 133.484 40.9608 119.983H40.9601ZM5.46129 16.236C6.37796 14.6991 8.39345 12.3727 9.6872 12.134C9.42293 14.9909 6.76125 15.5768 10.4334 27.8198C11.3708 30.9431 28.5201 83.974 38.0724 115.701C40.4001 123.433 40.5861 122.156 41.2799 124.186C42.2062 126.897 44.004 129.892 46.7254 131.667C44.399 132.151 39.2423 130.53 38.0227 126.787C26.4784 91.3494 25.0028 85.9212 25.0028 85.9212C6.47904 25.3434 2.73269 20.809 5.46129 16.236Z" fill="#0A0430"/>
<path d="M35.0041 91.9053C43.2993 118.958 45.5442 129.699 51.1332 129.164C55.8755 128.711 63.4828 127.153 66.4405 126.362C89.2381 120.267 92.2254 119.678 92.6515 117.412C92.9806 115.663 90.4518 105.593 90.2479 104.886C90.0388 104.162 79.8365 76.3802 79.338 74.8833C71.2094 50.4521 73.7597 54.4517 65.7995 31.0697C59.7012 13.1559 60.7193 6.85618 48.9849 8.20237C48.278 8.28344 47.7177 7.91602 47.2195 8.36486C45.6466 9.78074 46.7144 11.8021 43.182 12.3679C42.7497 12.4372 33.7973 13.395 33.7793 13.397C24.5399 14.5348 26.77 10.3583 24.1628 10.7243C16.7398 11.7662 13.2529 11.6493 12.8102 15.0351C11.6793 23.6798 16.0101 29.9591 35.0044 91.9059L35.0041 91.9053ZM24.7096 54.5352C23.2482 48.4894 8.7589 14.2868 15.9387 13.4885C17.0123 13.3687 18.0235 13.0224 19.0834 12.8554C24.6831 11.9653 24.5371 11.936 25.264 12.993C26.4788 14.7605 28.6688 14.7853 30.7288 15.1714C30.8065 15.1859 42.5423 13.8862 42.6251 13.8773C45.7808 13.5133 45.7532 13.0513 46.5806 12.2171C47.906 10.882 46.8407 9.4247 49.1643 9.57616C49.246 9.58168 52.8533 9.4868 54.3393 9.65378C58.0898 10.0771 59.3259 14.8681 64.9346 32.8726C70.6719 51.2908 76.2726 71.5199 80.4337 82.0548C81.8088 85.5369 83.0222 89.0628 84.1593 92.6108C85.2281 95.9462 88.5498 101.79 91.3929 115.963C91.5451 116.721 91.0414 117.821 90.2331 118.134C86.2576 119.672 81.7671 120.908 79.6246 121.3C78.2032 121.561 65.1364 125.291 63.5535 125.622C51.868 128.061 49.5762 128.624 47.8043 125.945C46.7368 124.331 45.648 122.007 44.9749 120.288C34.5901 85.8546 24.9221 55.4108 24.71 54.5355H24.7093L24.7096 54.5352Z" fill="#0A0430"/>
<path d="M32.5539 10.6984C32.5864 12.1574 34.7868 12.2458 34.7336 10.8168C34.6636 8.92411 32.5291 9.57167 32.5539 10.6984Z" fill="#0A0430"/>
<path d="M39.0986 10.3604C39.0972 8.94241 37.4178 9.31846 37.4309 10.2593C37.4502 11.6538 39.0993 11.4295 39.0986 10.3604Z" fill="#0A0430"/>
<path d="M48.7923 81.4124C52.3161 41.4224 50.6184 52.8326 60.266 70.6153C60.5965 71.2253 60.8138 71.899 61.2937 72.5266C63.2857 67.0563 62.5305 65.4265 63.6773 65.2102C64.3049 65.0919 64.3001 65.2281 66.8669 69.6434C67.0204 69.9077 67.1394 69.9802 67.4464 69.8504C69.7083 68.8965 72.173 68.7375 74.5117 68.0768C74.8139 67.9916 75.2221 67.9198 75.3259 68.3859C75.5243 69.276 71.3167 69.4609 67.3212 71.0331C66.6944 71.2794 66.2942 71.1259 66.0292 70.4928C65.5269 69.2933 64.6175 68.3338 64.0147 66.9859C63.5645 68.7913 63.5852 69.986 62.2425 73.3325C61.1819 75.9756 59.6063 71.8583 58.4557 69.7418C51.6458 57.2317 52.8084 52.3931 51.7959 61.243C49.6224 80.2456 50.6163 83.4769 49.1294 83.718C48.4942 83.8212 48.2965 83.3396 48.0861 82.9245C43.1319 73.1697 45.7425 78.5168 41.7367 69.2829C40.7352 72.409 42.3184 76.591 39.6995 77.4591C35.4508 78.8667 35.0247 79.2693 34.806 78.4934C34.658 77.971 34.7556 77.8493 38.9412 76.549C40.9798 75.9159 39.5104 72.3676 40.7155 67.8394C40.8545 67.3157 40.7659 66.7962 41.5359 66.6733C42.5644 66.5101 46.3042 78.641 48.7951 81.4114L48.793 81.4121L48.7923 81.4124Z" fill="#0A0430"/>
<path d="M59.7496 26.0861C57.7109 18.4986 57.751 19.0368 56.0798 19.2941C42.3805 21.4052 39.0782 21.9675 35.5078 22.6941C21.4539 25.5552 21.1051 25.0384 21.5908 26.7872C22.6934 30.7516 24.0948 34.6252 25.1885 38.5931C25.7315 40.563 25.5559 40.8266 28.1448 40.3453L60.8284 34.0553C61.5449 33.9211 61.6571 33.1831 59.7499 26.0858L59.7496 26.0861ZM27.5928 39.3272C26.6389 39.5556 26.5623 39.4918 26.3297 38.57C23.5104 27.4089 21.6826 26.5816 23.2216 26.2862C24.3187 26.0758 56.7411 19.696 57.0779 20.7614C57.6319 22.5157 58.5389 26.0289 60.3485 33.0665C55.3474 33.6316 29.1594 38.9512 27.5928 39.3272Z" fill="#0A0430"/>
<path d="M97.3277 75.9461C88.466 75.8657 84.8939 75.8291 79.595 76.4574C75.2704 76.97 65.6229 78.4225 65.38 79.9743C64.5209 85.4356 62.9671 108.62 68.1745 110.255C70.2538 110.909 72.4052 111.333 74.6139 111.307C127.447 110.688 114.444 104.88 131.948 115.96C133.944 117.223 128.399 109.86 125.216 101.355C122.218 93.343 124.506 89.221 121.846 82.2779C121.113 80.3666 119.52 79.2536 117.927 78.1558C114.343 75.6863 109.189 76.0503 97.3273 75.9443V75.945L97.3277 75.9461Z" fill="#02518C"/>
<path d="M63.7936 80.6974C61.5994 82.9641 60.5209 84.9868 60.4954 90.0027C60.4706 94.8227 60.9525 105.241 62.13 110.789C63.0222 114.992 66.4491 115.242 72.9161 115.27C78.6583 115.295 87.2833 114.81 92.6722 114.31C125.395 111.275 121.742 115.178 132.921 118.221C133.398 118.296 133.416 117.918 133.174 117.788C117.248 109.212 125.976 109.588 102.422 111.343C95.0289 111.895 96.2664 111.644 77.1179 112.292C74.1447 112.392 71.2132 112.205 68.3376 111.348C66.5605 110.819 65.3568 109.781 64.8583 107.974C62.011 97.6448 63.7985 80.6802 63.7936 80.6974Z" fill="#02518C"/>
<path d="M115.371 75.7487C116.821 75.9902 122.567 78.5488 123.978 84.8209C124.681 87.9497 124.384 91.0888 124.777 93.0101C124.374 93.4466 126.038 101.277 126.826 102.071C127.781 105.02 131.926 111.447 134.45 117.381C134.908 119.291 133.848 119.637 132.361 119.108C126.207 116.918 122.713 115.539 122.661 115.523C119.219 114.501 113.688 113.799 101.952 114.646C59.7482 117.697 60.9967 118.941 59.753 100.671C58.8829 87.8962 59.2521 84.3041 62.1742 80.7195C64.1173 78.3366 67.4741 77.0539 71.0242 76.3228C81.6484 74.1348 111.384 74.4198 115.37 75.7487H115.371H115.371ZM63.7937 80.6981C61.5995 82.9648 60.521 84.9875 60.4954 90.0034C60.4706 94.8234 60.9526 105.242 62.1301 110.789C63.0222 114.992 66.4491 115.243 72.9161 115.271C78.6583 115.296 87.2833 114.811 92.6722 114.31C126.025 111.217 122.044 115.129 132.777 118.153C133.163 118.262 133.552 118.037 132.822 117.662C130.928 116.688 128.821 115.315 127.059 114.227C119.192 109.379 122.156 109.872 102.423 111.343C95.0299 111.894 96.2675 111.643 77.1189 112.291C74.1457 112.392 71.2143 112.204 68.3387 111.348C66.5616 110.818 65.3579 109.78 64.8594 107.973C62.0121 97.6442 63.7988 80.6795 63.794 80.6967L63.7937 80.6981ZM97.3276 75.9457C88.466 75.866 84.8938 75.8295 79.595 76.4577C75.2704 76.9704 65.6228 78.4228 65.38 79.9746C64.5209 85.436 62.967 108.621 68.1745 110.255C70.2538 110.909 72.4052 111.333 74.6139 111.307C127.447 110.689 114.444 104.88 131.948 115.96C133.944 117.223 128.399 109.861 125.216 101.355C122.218 93.3434 124.506 89.2213 121.846 82.2782C121.113 80.3669 119.52 79.2539 117.927 78.1562C114.343 75.6866 109.189 76.0506 97.3273 75.9447V75.9454L97.3276 75.9457Z" fill="#0A0430"/>
<path d="M90.0278 93.5C89.9946 95.5262 91.7924 95.156 96.4348 95.3885C97.3514 95.4348 97.4625 95.1657 97.6088 91.1509C97.8065 85.7244 100.546 85.2083 102.048 79.9011C102.979 76.6078 103.399 73.3199 101.224 70.3926C97.8113 65.7948 93.4971 64.1484 88.1279 65.0095C83.0857 65.8182 80.6469 69.6664 78.333 73.6149C77.7258 74.6506 79.4411 74.4705 81.842 75.7732C83.3306 76.5812 83.3913 76.6599 84.0493 75.1394C85.2295 72.4126 88.4073 70.1383 92.2385 71.597C96.0694 73.056 95.1127 78.8996 92.4286 81.9639C89.6069 85.1845 90.134 87.0137 90.0271 93.4993H90.0278V93.5Z" fill="white"/>
<path d="M92.8009 106.978C94.2648 106.976 95.5085 105.797 95.5051 104.413C95.5016 103.13 94.331 101.89 93.0994 101.866C91.61 101.836 90.2569 103.067 90.2721 104.44C90.2866 105.738 91.5234 106.98 92.8009 106.978V106.978Z" fill="white"/>
<path d="M91.2132 63.1504C96.2747 62.8095 104.991 68.1701 104.359 76.4643C103.635 85.9535 99.1527 85.2048 99.1658 92.7034C99.17 94.9945 98.9633 97.2929 96.6742 97.1956C91.2546 96.9673 88.5588 97.0946 88.466 94.0227C88.2621 87.3017 88.2362 84.2236 90.5274 81.5534C92.9858 78.6881 94.4066 74.1928 91.6817 73.2178C88.6927 72.1483 86.6568 73.5159 85.3165 76.3652C84.0286 79.1039 83.794 78.4363 77.8403 75.9205C76.2561 75.2509 76.6649 73.3582 76.9992 72.7538C80.4316 66.5566 83.7243 62.9858 91.2136 63.1504H91.2132ZM90.0282 93.5C89.995 95.5262 91.7928 95.156 96.4352 95.3885C97.3518 95.4348 97.4629 95.1657 97.6092 91.1509C97.8069 85.7244 100.547 85.2083 102.048 79.9011C102.979 76.6078 103.399 73.3199 101.225 70.3926C97.8117 65.7948 93.4975 64.1485 88.1282 65.0096C83.0861 65.8183 80.6473 69.6664 78.3334 73.6149C77.7262 74.6506 79.4415 74.4705 81.8423 75.7732C83.331 76.5812 83.3917 76.6599 84.0497 75.1395C85.2299 72.4126 88.4077 70.1383 92.2389 71.597C96.0698 73.056 95.1131 78.8996 92.429 81.9639C89.6073 85.1845 90.1344 87.0137 90.0275 93.4993H90.0282V93.5Z" fill="#0A0430"/>
<path d="M97.1041 104.379C97.1831 110.041 88.723 110.203 88.6809 104.431C88.6409 98.9168 97.0234 98.5987 97.1041 104.38V104.379ZM92.8016 106.978C94.2654 106.976 95.5092 105.797 95.5057 104.413C95.5023 103.13 94.3317 101.89 93.1 101.866C91.6107 101.836 90.2576 103.067 90.2728 104.44C90.2873 105.738 91.5241 106.979 92.8016 106.978V106.978Z" fill="#0A0430"/>
</svg>
