<svg width="123" height="123" viewBox="0 0 123 123" fill="none" xmlns="http://www.w3.org/2000/svg">
<path fill-rule="evenodd" clip-rule="evenodd" d="M61.5 123C95.4655 123 123 95.4655 123 61.5C123 27.5345 95.4655 0 61.5 0C27.5345 0 0 27.5345 0 61.5C0 95.4655 27.5345 123 61.5 123ZM97.0819 52.6652C99.7505 49.9967 99.7505 45.67 97.0819 43.0014C94.4133 40.3329 90.0867 40.3329 87.4181 43.0014L58.0833 72.3362L45.8319 60.0848C43.1633 57.4162 38.8367 57.4162 36.1681 60.0848C33.4995 62.7534 33.4995 67.08 36.1681 69.7486L50.8355 84.416C54.8384 88.4188 61.3283 88.4188 65.3312 84.416L97.0819 52.6652Z" fill="#EFADF9"/>
</svg>
